<?xml version="1.0" encoding="utf-8"?>
<!-- Svg Vector Icons : http://www.onlinewebfonts.com/icon -->
<!DOCTYPE svg PUBLIC "-//W3C//DTD SVG 1.1//EN" "http://www.w3.org/Graphics/SVG/1.1/DTD/svg11.dtd">
<svg version="1.1" xmlns="http://www.w3.org/2000/svg" xmlns:xlink="http://www.w3.org/1999/xlink" x="0px" y="0px" viewBox="0 0 1000 1000" enable-background="new 0 0 1000 1000" xml:space="preserve">
<metadata> Svg Vector Icons : http://www.onlinewebfonts.com/icon </metadata>
<g><g><path d="M827.1,830.6l24.4,110.7c1.4,5.6,0.7,10.8-2.1,15.7c-2.8,4.9-6.7,8.2-11.8,10.1l-3.5,0.7c-1.9,0.9-4.3,1.7-7.3,2.4c-3,0.7-6.7,1.7-11.1,3.1c-4.4,1.4-9.4,2.7-15,3.8s-11.5,2.3-17.7,3.5c-6.3,1.2-13.2,2.3-20.9,3.5c-7.7,1.2-15.4,2.2-23.3,3.1c-7.9,0.9-16.4,1.6-25.4,2.1s-18,0.7-26.8,0.7c-108.6,0-203.5-30.3-284.7-90.8c-81.2-60.6-136.4-142.1-165.7-244.7h-66.1c-6,0-11.3-2.2-15.7-6.6c-4.4-4.4-6.6-9.6-6.6-15.7v-78.7c0-6,2.2-11.3,6.6-15.7s9.6-6.6,15.7-6.6H216c-0.9-26.4-0.7-50.8,0.7-73.1h-46.6c-6.5,0-11.8-2.1-16-6.3c-4.2-4.2-6.3-9.5-6.3-16v-79.3c0-6.5,2.1-11.8,6.3-16c4.2-4.2,9.5-6.3,16-6.3h68.2c31.1-97.4,87.6-175.9,169.5-235.3C489.7,39.7,582.6,10,686.5,10c47.3,0,92.3,5.3,135,16c5.1,1.4,9.7,4.9,13.9,10.4c2.8,5.1,3.5,10.7,2.1,16.7l-29.9,110.7c-1.4,6-4.6,10.6-9.7,13.6c-5.1,3-10.7,3.6-16.7,1.7l-2.8-0.7c-1.9-0.5-4.5-1-8-1.7l-12.2-2.4c0,0-5.2-0.8-15.7-2.4c-10.4-1.6-16.5-2.3-18.1-2.1c-1.6,0.2-8.4-0.3-20.2-1.7c-11.8-1.4-18.7-1.6-20.5-0.7c-58.5,0-110.9,14.8-157.3,44.5S445.2,282.4,422,334.3h325.7c7.4,0,13.2,2.8,17.4,8.4c4.6,5.6,6.3,11.6,4.9,18.1l-16.7,79.3c-2.3,12.1-9.7,18.1-22.3,18.1H391.4c-1.4,17.2-1.4,41.5,0,73.1h319.5c7,0,12.8,2.8,17.4,8.4c4.2,5.6,5.6,11.8,4.2,18.8l-16.7,78c-0.9,5.1-3.5,9.4-7.7,12.9c-4.2,3.5-8.8,5.2-13.9,5.2H424.8c22.3,54.3,57,97.3,104.1,129.1c47.1,31.8,100.1,47.7,159,47.7c8.4,0,16.7-0.3,25.1-1c8.4-0.7,16.1-1.5,23.3-2.4s14-2,20.5-3.1c6.5-1.2,12.2-2.3,17.1-3.5c4.9-1.2,9.2-2.2,12.9-3.1l8.4-2.1l3.5-1.4c6-2.3,12.1-1.9,18.1,1.4C822.3,819.2,825.7,824.1,827.1,830.6L827.1,830.6z"/></g></g>
</svg>