<?xml version="1.0" encoding="UTF-8" standalone="no"?>
<!-- Generator: Adobe Illustrator 19.0.0, SVG Export Plug-In . SVG Version: 6.00 Build 0)  -->

<svg
   xmlns:dc="http://purl.org/dc/elements/1.1/"
   xmlns:cc="http://creativecommons.org/ns#"
   xmlns:rdf="http://www.w3.org/1999/02/22-rdf-syntax-ns#"
   xmlns:svg="http://www.w3.org/2000/svg"
   xmlns="http://www.w3.org/2000/svg"
   xmlns:sodipodi="http://sodipodi.sourceforge.net/DTD/sodipodi-0.dtd"
   xmlns:inkscape="http://www.inkscape.org/namespaces/inkscape"
   version="1.1"
   id="Layer_1"
   x="0px"
   y="0px"
   viewBox="0 0 512 542"
   xml:space="preserve"
   width="512"
   height="542"
   inkscape:version="0.91 r13725"
   sodipodi:docname="pins_selection.svg"><metadata
     id="metadata43"><rdf:RDF><cc:Work
         rdf:about=""><dc:format>image/svg+xml</dc:format><dc:type
           rdf:resource="http://purl.org/dc/dcmitype/StillImage" /><dc:title></dc:title></cc:Work></rdf:RDF></metadata><defs
     id="defs41" /><sodipodi:namedview
     pagecolor="#ffffff"
     bordercolor="#666666"
     borderopacity="1"
     objecttolerance="10"
     gridtolerance="10"
     guidetolerance="10"
     inkscape:pageopacity="0"
     inkscape:pageshadow="2"
     inkscape:window-width="1280"
     inkscape:window-height="962"
     id="namedview39"
     showgrid="false"
     inkscape:zoom="1.365657"
     inkscape:cx="256.75573"
     inkscape:cy="265.03817"
     inkscape:window-x="-8"
     inkscape:window-y="-8"
     inkscape:window-maximized="1"
     inkscape:current-layer="Layer_1" /><circle
     style="opacity:1;fill:#000000;fill-opacity:1;stroke:none;stroke-width:10;stroke-linecap:round;stroke-linejoin:round;stroke-miterlimit:4;stroke-dasharray:none;stroke-dashoffset:0;stroke-opacity:1"
     id="path4236"
     cx="254.98091"
     cy="214.22519"
     r="79.866409" /><g
     id="g9"
     transform="translate(0,14)" /><g
     id="g11"
     transform="translate(0,14)" /><g
     id="g13"
     transform="translate(0,14)" /><g
     id="g15"
     transform="translate(0,14)" /><g
     id="g17"
     transform="translate(0,14)" /><g
     id="g19"
     transform="translate(0,14)" /><g
     id="g21"
     transform="translate(0,14)" /><g
     id="g23"
     transform="translate(0,14)" /><g
     id="g25"
     transform="translate(0,14)" /><g
     id="g27"
     transform="translate(0,14)" /><g
     id="g29"
     transform="translate(0,14)" /><g
     id="g31"
     transform="translate(0,14)" /><g
     id="g33"
     transform="translate(0,14)" /><g
     id="g35"
     transform="translate(0,14)" /><g
     id="g37"
     transform="translate(0,14)" /><path
     inkscape:connector-curvature="0"
     id="path4226-0"
     d="M 245.93057,519.76932 C 227.2707,510.48339 174.77754,463.45977 149.71039,433.57485 98.197289,372.16123 69.185887,309.44827 61.691841,243.30813 c -2.134107,-18.83493 -0.822849,-55.80652 2.487888,-70.14757 8.976452,-38.88314 26.225475,-70.36538 53.335201,-97.34535 17.2238,-17.141338 31.60346,-27.544153 51.53141,-37.279831 25.07098,-12.248288 44.07868,-17.454787 72.952,-19.982701 43.16279,-3.778986 85.31027,7.387723 122.99448,32.586647 41.0689,27.462222 70.0605,69.921765 82.04668,120.161125 4.30653,18.05056 5.38403,53.96344 2.33729,77.90067 -9.04975,71.10056 -44.82414,140.39425 -105.58715,204.51836 -23.14046,24.42046 -60.33989,56.25349 -76.60834,65.55679 -6.41518,3.6686 -14.49294,3.85602 -21.25073,0.49305 z M 270.1119,280.22731 c 22.91259,-4.19353 44.30143,-24.24104 51.38599,-48.16352 2.59786,-8.77219 2.62184,-26.81045 0.0486,-36.57647 -7.66674,-29.09728 -35.74558,-50.14438 -66.98494,-50.20996 -30.39195,-0.0638 -58.61205,22.43838 -65.66721,52.36181 -9.23271,39.15915 18.06426,79.06269 57.33136,83.8087 8.73732,1.05606 12.49695,0.86394 23.88618,-1.22056 z"
     style="fill:none;fill-opacity:1;stroke:#000000;stroke-width:30;stroke-miterlimit:4;stroke-dasharray:none;stroke-opacity:1" /></svg>