<?xml version="1.0" encoding="UTF-8" standalone="no"?>
<!-- Generator: Adobe Illustrator 19.0.0, SVG Export Plug-In . SVG Version: 6.00 Build 0)  -->

<svg
   xmlns:dc="http://purl.org/dc/elements/1.1/"
   xmlns:cc="http://creativecommons.org/ns#"
   xmlns:rdf="http://www.w3.org/1999/02/22-rdf-syntax-ns#"
   xmlns:svg="http://www.w3.org/2000/svg"
   xmlns="http://www.w3.org/2000/svg"
   xmlns:sodipodi="http://sodipodi.sourceforge.net/DTD/sodipodi-0.dtd"
   xmlns:inkscape="http://www.inkscape.org/namespaces/inkscape"
   version="1.1"
   id="Layer_1"
   x="0px"
   y="0px"
   viewBox="0 0 512 512"
   style="enable-background:new 0 0 512 512;"
   xml:space="preserve"
   width="512px"
   height="512px"
   inkscape:version="0.91 r13725"
   sodipodi:docname="pins_light.svg"><metadata
     id="metadata43"><rdf:RDF><cc:Work
         rdf:about=""><dc:format>image/svg+xml</dc:format><dc:type
           rdf:resource="http://purl.org/dc/dcmitype/StillImage" /><dc:title></dc:title></cc:Work></rdf:RDF></metadata><defs
     id="defs41" /><sodipodi:namedview
     pagecolor="#ffffff"
     bordercolor="#666666"
     borderopacity="1"
     objecttolerance="10"
     gridtolerance="10"
     guidetolerance="10"
     inkscape:pageopacity="0"
     inkscape:pageshadow="2"
     inkscape:window-width="1280"
     inkscape:window-height="1002"
     id="namedview39"
     showgrid="false"
     inkscape:zoom="0.84516129"
     inkscape:cx="240.81356"
     inkscape:cy="157.51176"
     inkscape:window-x="-8"
     inkscape:window-y="-8"
     inkscape:window-maximized="1"
     inkscape:current-layer="Layer_1" /><g
     id="g9" /><g
     id="g11" /><g
     id="g13" /><g
     id="g15" /><g
     id="g17" /><g
     id="g19" /><g
     id="g21" /><g
     id="g23" /><g
     id="g25" /><g
     id="g27" /><g
     id="g29" /><g
     id="g31" /><g
     id="g33" /><g
     id="g35" /><g
     id="g37" /><g
     id="g4232"
     transform="matrix(1.0264906,0,0,1.0264906,7.6775222,-11.812107)"><path
       style="fill:#31b7ad;fill-opacity:1"
       d="M 232.10446,504.22422 C 213.92615,495.17794 162.78767,449.36785 138.36743,420.25417 88.183727,360.42545 59.921021,299.33092 52.620374,234.89766 50.541341,216.5488 51.81876,180.53133 55.044057,166.56038 63.788854,128.6807 80.592732,98.01092 107.00284,71.727225 c 16.7793,-16.698972 30.78787,-26.833322 50.20154,-36.317752 24.42397,-11.932197 42.94114,-17.004333 71.06933,-19.467009 42.04889,-3.681462 83.10867,7.197069 119.82037,31.745685 40.00903,26.753506 68.25245,68.117291 79.9293,117.060131 4.19539,17.58473 5.24509,52.5708 2.27697,75.89029 -8.8162,69.26567 -43.66736,136.7711 -102.86226,199.24036 -22.54328,23.79024 -58.7827,54.80176 -74.63132,63.86497 -6.24962,3.57392 -14.11892,3.75651 -20.70231,0.48032 z m 23.55728,-233.36015 c 22.32129,-4.08531 43.15815,-23.61546 50.05988,-46.92057 2.53082,-8.54581 2.55418,-26.11855 0.0473,-35.63254 -7.46889,-28.34637 -34.8231,-48.85031 -65.25627,-48.9142 -29.60762,-0.0622 -57.09945,21.85932 -63.97254,51.01051 -8.99444,38.14858 17.59808,77.02233 55.85182,81.64586 8.51183,1.0288 12.17444,0.84164 23.26975,-1.18906 z"
       id="path4226"
       inkscape:connector-curvature="0" /><path
       style="fill:#00a699;fill-opacity:1;stroke:#00a598;stroke-width:4.12353086;stroke-miterlimit:4;stroke-dasharray:none;stroke-opacity:1"
       d="m 244.13763,502.70466 c -0.31664,-0.83055 -0.43547,-52.30902 -0.2641,-114.39659 l 0.31158,-112.88652 8.90655,-1.63282 c 26.7429,-4.90273 48.39154,-24.80821 55.13411,-50.69473 0.98941,-3.79858 1.79892,-11.47059 1.79892,-17.04889 0,-19.74643 -6.03966,-34.08513 -20.49646,-48.6605 -10.61179,-10.6988 -20.00756,-15.76278 -35.38406,-19.07064 l -9.95906,-2.14244 0,-59.101614 0,-59.101613 11.22572,0.289562 c 6.17415,0.159259 16.6385,1.392607 23.2541,2.740782 57.74786,11.768261 106.51436,49.422424 132.19429,102.071373 15.23996,31.24494 21.31984,63.84796 18.717,100.36891 -4.41575,61.95813 -27.5677,119.63421 -70.9047,176.63771 -26.96729,35.4715 -75.00869,81.49234 -104.75638,100.35045 -6.44239,4.08405 -8.87298,4.65023 -9.77751,2.27757 z"
       id="path4224"
       inkscape:connector-curvature="0" /></g><circle
     style="opacity:1;fill:#ffffff;fill-opacity:1;stroke:#88c1bc;stroke-width:10;stroke-linecap:round;stroke-linejoin:round;stroke-miterlimit:4;stroke-dasharray:none;stroke-dashoffset:0;stroke-opacity:1"
     id="path4236"
     cx="254.98091"
     cy="200.22519"
     r="79.866409" /><path
     sodipodi:type="star"
     style="opacity:1;fill:#5f5453;fill-opacity:1;stroke:#5f5453;stroke-width:7.6;stroke-linecap:round;stroke-linejoin:round;stroke-miterlimit:4;stroke-dasharray:none;stroke-dashoffset:0;stroke-opacity:1"
     id="path4242"
     sodipodi:sides="5"
     sodipodi:cx="-171.56488"
     sodipodi:cy="126.27481"
     sodipodi:r1="48.280029"
     sodipodi:r2="24.140015"
     sodipodi:arg1="0.94200004"
     sodipodi:arg2="1.5703186"
     inkscape:flatsided="false"
     inkscape:rounded="0"
     inkscape:randomized="0.003"
     d="m -143.22945,165.18901 -28.42548,-14.66309 -28.16217,14.92036 5.1934,-31.6421 -22.89958,-22.54802 31.77819,-4.54753 14.17426,-28.691035 14.10425,28.630635 31.73287,4.60757 -22.77088,22.60231 z"
     inkscape:transform-center-x="0.06361497"
     inkscape:transform-center-y="-4.542872"
     transform="translate(428.38422,76.718336)" /></svg>