<?xml version="1.0" encoding="UTF-8" standalone="no"?>
<!-- Generator: Adobe Illustrator 19.0.0, SVG Export Plug-In . SVG Version: 6.00 Build 0)  -->

<svg
   xmlns:dc="http://purl.org/dc/elements/1.1/"
   xmlns:cc="http://creativecommons.org/ns#"
   xmlns:rdf="http://www.w3.org/1999/02/22-rdf-syntax-ns#"
   xmlns:svg="http://www.w3.org/2000/svg"
   xmlns="http://www.w3.org/2000/svg"
   xmlns:sodipodi="http://sodipodi.sourceforge.net/DTD/sodipodi-0.dtd"
   xmlns:inkscape="http://www.inkscape.org/namespaces/inkscape"
   version="1.1"
   id="Layer_1"
   x="0px"
   y="0px"
   viewBox="0 0 100 100"
   xml:space="preserve"
   width="100"
   height="100"
   inkscape:version="0.91 r13725"
   sodipodi:docname="cout_proj.svg"><metadata
     id="metadata43"><rdf:RDF><cc:Work
         rdf:about=""><dc:format>image/svg+xml</dc:format><dc:type
           rdf:resource="http://purl.org/dc/dcmitype/StillImage" /><dc:title></dc:title></cc:Work></rdf:RDF></metadata><defs
     id="defs41" /><sodipodi:namedview
     pagecolor="#ffffff"
     bordercolor="#666666"
     borderopacity="1"
     objecttolerance="10"
     gridtolerance="10"
     guidetolerance="10"
     inkscape:pageopacity="0"
     inkscape:pageshadow="2"
     inkscape:window-width="1280"
     inkscape:window-height="1002"
     id="namedview39"
     showgrid="false"
     inkscape:zoom="6.4691977"
     inkscape:cx="49.91603"
     inkscape:cy="52.219846"
     inkscape:window-x="-8"
     inkscape:window-y="49"
     inkscape:window-maximized="1"
     inkscape:current-layer="text4154" /><g
     id="g9"
     transform="translate(0,-412)" /><g
     id="g11"
     transform="translate(0,-412)" /><g
     id="g13"
     transform="translate(0,-412)" /><g
     id="g15"
     transform="translate(0,-412)" /><g
     id="g17"
     transform="translate(0,-412)" /><g
     id="g19"
     transform="translate(0,-412)" /><g
     id="g21"
     transform="translate(0,-412)" /><g
     id="g23"
     transform="translate(0,-412)" /><g
     id="g25"
     transform="translate(0,-412)" /><g
     id="g27"
     transform="translate(0,-412)" /><g
     id="g29"
     transform="translate(0,-412)" /><g
     id="g31"
     transform="translate(0,-412)" /><g
     id="g33"
     transform="translate(0,-412)" /><g
     id="g35"
     transform="translate(0,-412)" /><g
     id="g37"
     transform="translate(0,-412)" /><g
     transform="scale(0.99999637,1.0000036)"
     style="font-style:normal;font-weight:normal;font-size:68.45582581px;line-height:69.99999881%;font-family:sans-serif;letter-spacing:0px;word-spacing:0px;fill:#ffffff;fill-opacity:1;stroke:none;stroke-width:1px;stroke-linecap:butt;stroke-linejoin:miter;stroke-opacity:1"
     id="text4154"><g
       id="g4162"
       transform="translate(-1.2647037,1.5573725)"><path
         transform="matrix(0.45122008,0.3037679,-0.30376313,0.45122251,58.987763,-97.531034)"
         inkscape:transform-center-y="-1.6388569"
         inkscape:transform-center-x="-3.2728479"
         d="M 214.03723,286.05954 112.04591,327.12723 41.471174,242.81834 99.8449,149.64489 206.49658,176.36943 Z"
         inkscape:randomized="0"
         inkscape:rounded="3.1225e-017"
         inkscape:flatsided="true"
         sodipodi:arg2="1.1880001"
         sodipodi:arg1="0.55968157"
         sodipodi:r2="75.665909"
         sodipodi:r1="93.528206"
         sodipodi:cy="236.40388"
         sodipodi:cx="134.77916"
         sodipodi:sides="5"
         id="path4152"
         style="color:#000000;clip-rule:nonzero;display:inline;overflow:visible;visibility:visible;opacity:1;isolation:auto;mix-blend-mode:normal;color-interpolation:sRGB;color-interpolation-filters:linearRGB;solid-color:#000000;solid-opacity:1;fill:#0094ab;fill-opacity:1;fill-rule:nonzero;stroke:#ffffff;stroke-width:0.24267243;stroke-linecap:round;stroke-linejoin:round;stroke-miterlimit:4;stroke-dasharray:none;stroke-dashoffset:0;stroke-opacity:1;color-rendering:auto;image-rendering:auto;shape-rendering:auto;text-rendering:auto;enable-background:accumulate"
         sodipodi:type="star" /><path
         inkscape:connector-curvature="0"
         id="path4159"
         style="font-style:normal;font-variant:normal;font-weight:normal;font-stretch:normal;font-family:'ADAM.CG PRO';-inkscape-font-specification:'ADAM.CG PRO';fill:#ffffff;fill-opacity:1"
         d="m 60.712111,70.18949 -3.231826,-6.052349 c -1.880331,0.998927 -3.878188,1.52777 -5.993567,1.52777 -5.288439,0 -9.871763,-3.349348 -12.163422,-8.167733 l 16.100375,0 0,-5.464747 -17.569386,0 c 0,-0.470084 -0.05875,-0.881409 -0.05875,-1.351481 0,-0.470097 0.05875,-0.940181 0.05875,-1.351506 l 17.569386,0 0,-5.464746 -16.100375,0 c 2.291659,-4.877132 6.874983,-8.167734 12.163422,-8.167734 2.056615,0 3.995717,0.470097 5.876048,1.410265 l 3.114306,-6.052361 c -2.820503,-1.469011 -5.81729,-2.174144 -8.990354,-2.174144 -2.820504,0 -5.523488,0.587602 -8.050186,1.762819 -2.467942,1.116458 -4.642079,2.703 -6.522415,4.700868 -2.291659,2.40918 -3.936953,5.347216 -4.935881,8.520287 l -4.348276,0 0,5.464746 3.408108,0 c -0.05875,0.411325 -0.05875,0.881409 -0.05875,1.351506 0,0.470072 0,0.881397 0.05875,1.351481 l -3.408108,0 0,5.464747 4.348276,0 c 0.998928,3.173084 2.644222,6.052348 4.935881,8.520299 1.880336,1.997868 4.054473,3.584397 6.522415,4.700855 2.526698,1.175217 5.229682,1.762819 8.050186,1.762819 3.231827,0 6.346134,-0.763892 9.225393,-2.291661 z" /></g></g></svg>