<?xml version="1.0" encoding="UTF-8" standalone="no"?>
<!-- Generator: Adobe Illustrator 18.1.1, SVG Export Plug-In . SVG Version: 6.00 Build 0)  -->

<svg
   xmlns:dc="http://purl.org/dc/elements/1.1/"
   xmlns:cc="http://creativecommons.org/ns#"
   xmlns:rdf="http://www.w3.org/1999/02/22-rdf-syntax-ns#"
   xmlns:svg="http://www.w3.org/2000/svg"
   xmlns="http://www.w3.org/2000/svg"
   xmlns:sodipodi="http://sodipodi.sourceforge.net/DTD/sodipodi-0.dtd"
   xmlns:inkscape="http://www.inkscape.org/namespaces/inkscape"
   version="1.1"
   id="Capa_1"
   x="0px"
   y="0px"
   viewBox="0 0 612 612"
   style="enable-background:new 0 0 612 612;"
   xml:space="preserve"
   inkscape:version="0.91 r13725"
   sodipodi:docname="no_comment.svg"><metadata
     id="metadata43"><rdf:RDF><cc:Work
         rdf:about=""><dc:format>image/svg+xml</dc:format><dc:type
           rdf:resource="http://purl.org/dc/dcmitype/StillImage" /><dc:title></dc:title></cc:Work></rdf:RDF></metadata><defs
     id="defs41" /><sodipodi:namedview
     pagecolor="#ffffff"
     bordercolor="#666666"
     borderopacity="1"
     objecttolerance="10"
     gridtolerance="10"
     guidetolerance="10"
     inkscape:pageopacity="0"
     inkscape:pageshadow="2"
     inkscape:window-width="1280"
     inkscape:window-height="1002"
     id="namedview39"
     showgrid="false"
     inkscape:zoom="0.77124183"
     inkscape:cx="306"
     inkscape:cy="306"
     inkscape:window-x="-8"
     inkscape:window-y="49"
     inkscape:window-maximized="1"
     inkscape:current-layer="Capa_1" /><g
     id="g9" /><g
     id="g11" /><g
     id="g13" /><g
     id="g15" /><g
     id="g17" /><g
     id="g19" /><g
     id="g21" /><g
     id="g23" /><g
     id="g25" /><g
     id="g27" /><g
     id="g29" /><g
     id="g31" /><g
     id="g33" /><g
     id="g35" /><g
     id="g37" /><circle
     style="color:#000000;clip-rule:nonzero;display:inline;overflow:visible;visibility:visible;opacity:1;isolation:auto;mix-blend-mode:normal;color-interpolation:sRGB;color-interpolation-filters:linearRGB;solid-color:#000000;solid-opacity:1;fill:#ffffff;fill-opacity:1;fill-rule:nonzero;stroke:none;stroke-width:30;stroke-linecap:round;stroke-linejoin:round;stroke-miterlimit:4;stroke-dasharray:none;stroke-dashoffset:0;stroke-opacity:1;color-rendering:auto;image-rendering:auto;shape-rendering:auto;text-rendering:auto;enable-background:accumulate"
     id="path4186"
     cx="306"
     cy="306"
     r="202.91949" /><g
     id="g3"
     style="fill:#dbded5;fill-opacity:1"><g
       id="g5"
       style="fill:#dbded5;fill-opacity:1"><path
         inkscape:connector-curvature="0"
         style="fill:#dbded5;fill-opacity:1"
         d="m 306,612 c -28.152,0 -55.284,-3.672 -81.396,-11.016 -26.112,-7.347 -50.49,-17.646 -73.134,-30.906 C 128.826,556.818 108.222,540.906 89.658,522.342 71.094,503.78 55.182,483.174 41.922,460.53 28.662,437.884 18.36,413.508 11.016,387.395 3.672,361.284 0,334.152 0,306 0,277.848 3.672,250.716 11.016,224.604 18.36,198.492 28.662,174.114 41.922,151.47 55.182,128.826 71.094,108.222 89.658,89.658 108.222,71.094 128.826,55.182 151.47,41.922 174.114,28.662 198.492,18.36 224.604,11.016 250.716,3.672 277.848,0 306,0 c 42.024,0 81.702,8.058 119.034,24.174 37.332,16.116 69.768,37.944 97.308,65.484 27.54,27.54 49.368,59.976 65.484,97.308 C 603.942,224.298 612,263.976 612,306 c 0,28.152 -3.672,55.284 -11.016,81.396 -7.347,26.109 -17.646,50.487 -30.906,73.134 -13.26,22.644 -29.172,43.248 -47.736,61.812 -18.562,18.564 -39.168,34.479 -61.812,47.736 -22.646,13.26 -47.022,23.562 -73.136,30.906 C 361.284,608.328 334.152,612 306,612 Z m 147.492,-432.072 -290.088,0 c -2.856,0 -5.304,0.918 -7.344,2.754 -2.04,1.836 -3.06,4.386 -3.06,7.65 l 0,32.436 c 0,1.632 0.612,2.448 1.836,2.448 l 152.388,86.904 1.227,0.612 c 0.813,0 1.428,-0.204 1.836,-0.612 l 147.492,-86.904 c 0.813,-0.408 1.428,-0.612 1.836,-0.612 0.405,0 1.02,-0.204 1.836,-0.612 1.632,0 2.448,-0.816 2.448,-2.448 l 0,-31.212 c 0,-3.264 -1.021,-5.814 -3.063,-7.65 -2.042,-1.836 -4.488,-2.754 -7.344,-2.754 z m -208.08,130.356 c 0.408,-0.408 0.612,-1.021 0.612,-1.836 0,-1.227 -0.408,-1.836 -1.224,-1.836 l -87.516,-50.185 c -1.224,-0.408 -2.244,-0.408 -3.06,0 -0.816,0 -1.224,0.612 -1.224,1.836 l 0,131.58 c 0,1.227 0.612,2.04 1.836,2.448 l 1.224,0 c 0.816,0 1.224,-0.204 1.224,-0.612 l 88.128,-81.395 z m 106.488,9.792 c -0.408,-1.227 -1.431,-1.428 -3.063,-0.612 l -33.66,19.584 c -4.08,2.448 -8.361,2.448 -12.852,0 l -29.376,-16.521 c -1.224,-0.816 -2.244,-0.816 -3.06,0 l -111.996,104.04 c -0.408,0.405 -0.612,1.224 -0.612,2.445 0,0.408 0.408,1.021 1.224,1.836 2.448,0.816 4.08,1.227 4.896,1.227 l 287.029,0 c 0.816,0 1.635,-0.408 2.448,-1.227 0,-1.632 -0.204,-2.649 -0.612,-3.06 L 351.9,320.076 Z m 110.16,-66.096 -2.445,0 -83.232,49.572 c -0.813,0 -1.224,0.612 -1.224,1.836 -0.408,0.408 -0.204,1.02 0.609,1.833 L 459,397.188 c 0.816,0.816 1.428,1.227 1.836,1.227 l 1.224,0 c 1.227,-1.227 1.839,-2.04 1.839,-2.448 l 0,-139.538 c -0.003,-0.817 -0.615,-1.633 -1.839,-2.449 z"
         id="path7" /></g></g></svg>