<?xml version="1.0" encoding="UTF-8" standalone="no"?>
<!-- Generator: Adobe Illustrator 18.1.1, SVG Export Plug-In . SVG Version: 6.00 Build 0)  -->

<svg
   xmlns:dc="http://purl.org/dc/elements/1.1/"
   xmlns:cc="http://creativecommons.org/ns#"
   xmlns:rdf="http://www.w3.org/1999/02/22-rdf-syntax-ns#"
   xmlns:svg="http://www.w3.org/2000/svg"
   xmlns="http://www.w3.org/2000/svg"
   xmlns:sodipodi="http://sodipodi.sourceforge.net/DTD/sodipodi-0.dtd"
   xmlns:inkscape="http://www.inkscape.org/namespaces/inkscape"
   version="1.1"
   id="Capa_1"
   x="0px"
   y="0px"
   viewBox="0 0 612 612"
   style="enable-background:new 0 0 612 612;"
   xml:space="preserve"
   inkscape:version="0.91 r13725"
   sodipodi:docname="icon_mess_oui.svg"><metadata
     id="metadata43"><rdf:RDF><cc:Work
         rdf:about=""><dc:format>image/svg+xml</dc:format><dc:type
           rdf:resource="http://purl.org/dc/dcmitype/StillImage" /><dc:title /></cc:Work></rdf:RDF></metadata><defs
     id="defs41" /><sodipodi:namedview
     pagecolor="#ffffff"
     bordercolor="#666666"
     borderopacity="1"
     objecttolerance="10"
     gridtolerance="10"
     guidetolerance="10"
     inkscape:pageopacity="0"
     inkscape:pageshadow="2"
     inkscape:window-width="1280"
     inkscape:window-height="1002"
     id="namedview39"
     showgrid="false"
     inkscape:zoom="0.38562092"
     inkscape:cx="154.88925"
     inkscape:cy="306"
     inkscape:window-x="-8"
     inkscape:window-y="49"
     inkscape:window-maximized="1"
     inkscape:current-layer="Capa_1" /><g
     id="g9" /><g
     id="g11" /><g
     id="g13" /><g
     id="g15" /><g
     id="g17" /><g
     id="g19" /><g
     id="g21" /><g
     id="g23" /><g
     id="g25" /><g
     id="g27" /><g
     id="g29" /><g
     id="g31" /><g
     id="g33" /><g
     id="g35" /><g
     id="g37" /><g
     id="g4158"><rect
       y="145.22034"
       x="134.84746"
       height="318.96606"
       width="367.30762"
       id="rect4156"
       style="color:#000000;clip-rule:nonzero;display:inline;overflow:visible;visibility:visible;opacity:1;isolation:auto;mix-blend-mode:normal;color-interpolation:sRGB;color-interpolation-filters:linearRGB;solid-color:#000000;solid-opacity:1;fill:#ffffff;fill-opacity:1;fill-rule:nonzero;stroke:none;stroke-width:30;stroke-linecap:round;stroke-linejoin:round;stroke-miterlimit:4;stroke-dasharray:none;stroke-dashoffset:0;stroke-opacity:1;color-rendering:auto;image-rendering:auto;shape-rendering:auto;text-rendering:auto;enable-background:accumulate" /><g
       id="g4156"><ellipse
         style="color:#000000;clip-rule:nonzero;display:inline;overflow:visible;visibility:visible;opacity:0.28900003;isolation:auto;mix-blend-mode:normal;color-interpolation:sRGB;color-interpolation-filters:linearRGB;solid-color:#000000;solid-opacity:1;fill:#ffffff;fill-opacity:1;fill-rule:nonzero;stroke:none;stroke-width:30;stroke-linecap:round;stroke-linejoin:round;stroke-miterlimit:4;stroke-dasharray:none;stroke-dashoffset:0;stroke-opacity:1;color-rendering:auto;image-rendering:auto;shape-rendering:auto;text-rendering:auto;enable-background:accumulate"
         id="path4154"
         cx="306"
         cy="306"
         rx="208.10593"
         ry="207.45763" /><g
         id="g3"
         style="fill:#dbded5;fill-opacity:1"><g
           id="g5"
           style="fill:#dbded5;fill-opacity:1"><path
             style="fill:#dbded5;fill-opacity:1"
             d="M306,612c-28.152,0-55.284-3.672-81.396-11.016c-26.112-7.347-50.49-17.646-73.134-30.906    s-43.248-29.172-61.812-47.736c-18.564-18.562-34.476-39.168-47.736-61.812c-13.26-22.646-23.562-47.022-30.906-73.135    C3.672,361.284,0,334.152,0,306s3.672-55.284,11.016-81.396s17.646-50.49,30.906-73.134s29.172-43.248,47.736-61.812    s39.168-34.476,61.812-47.736s47.022-23.562,73.134-30.906S277.848,0,306,0c42.024,0,81.702,8.058,119.034,24.174    s69.768,37.944,97.308,65.484s49.368,59.976,65.484,97.308S612,263.976,612,306c0,28.152-3.672,55.284-11.016,81.396    c-7.347,26.109-17.646,50.487-30.906,73.134c-13.26,22.644-29.172,43.248-47.736,61.812    c-18.562,18.564-39.168,34.479-61.812,47.736c-22.646,13.26-47.022,23.562-73.136,30.906C361.284,608.328,334.152,612,306,612z     M453.492,179.928H163.404c-2.856,0-5.304,0.918-7.344,2.754s-3.06,4.386-3.06,7.65v32.436c0,1.632,0.612,2.448,1.836,2.448    l152.388,86.904l1.227,0.612c0.813,0,1.428-0.204,1.836-0.612l147.492-86.904c0.813-0.408,1.428-0.612,1.836-0.612    c0.405,0,1.02-0.204,1.836-0.612c1.632,0,2.448-0.816,2.448-2.448v-31.212c0-3.264-1.021-5.814-3.063-7.65    S456.348,179.928,453.492,179.928z M245.412,310.284c0.408-0.408,0.612-1.021,0.612-1.836c0-1.227-0.408-1.836-1.224-1.836    l-87.516-50.185c-1.224-0.408-2.244-0.408-3.06,0c-0.816,0-1.224,0.612-1.224,1.836v131.58c0,1.227,0.612,2.04,1.836,2.448h1.224    c0.816,0,1.224-0.204,1.224-0.612L245.412,310.284z M351.9,320.076c-0.408-1.227-1.431-1.428-3.063-0.612l-33.66,19.584    c-4.08,2.448-8.361,2.448-12.852,0l-29.376-16.521c-1.224-0.816-2.244-0.816-3.06,0l-111.996,104.04    c-0.408,0.405-0.612,1.224-0.612,2.445c0,0.408,0.408,1.021,1.224,1.836c2.448,0.816,4.08,1.227,4.896,1.227H450.43    c0.816,0,1.635-0.408,2.448-1.227c0-1.632-0.204-2.649-0.612-3.06L351.9,320.076z M462.06,253.98h-2.445l-83.232,49.572    c-0.813,0-1.224,0.612-1.224,1.836c-0.408,0.408-0.204,1.02,0.609,1.833L459,397.188c0.816,0.816,1.428,1.227,1.836,1.227h1.224    c1.227-1.227,1.839-2.04,1.839-2.448V256.429C463.896,255.612,463.284,254.796,462.06,253.98z"
             id="path7" /></g></g><g
         id="g4179"
         transform="translate(132.25424,102.4322)"><circle
           r="64.182205"
           cy="306"
           cx="306"
           id="path4173"
           style="color:#000000;clip-rule:nonzero;display:inline;overflow:visible;visibility:visible;opacity:1;isolation:auto;mix-blend-mode:normal;color-interpolation:sRGB;color-interpolation-filters:linearRGB;solid-color:#000000;solid-opacity:1;fill:#fa794b;fill-opacity:1;fill-rule:nonzero;stroke:none;stroke-width:30;stroke-linecap:round;stroke-linejoin:round;stroke-miterlimit:4;stroke-dasharray:none;stroke-dashoffset:0;stroke-opacity:1;color-rendering:auto;image-rendering:auto;shape-rendering:auto;text-rendering:auto;enable-background:accumulate" /><text
           sodipodi:linespacing="69.999999%"
           id="text4175"
           y="330.57571"
           x="285.68362"
           style="font-style:normal;font-weight:normal;font-size:69.04122925px;line-height:69.99999881%;font-family:sans-serif;letter-spacing:0px;word-spacing:0px;fill:#ffffff;fill-opacity:1;stroke:none;stroke-width:1px;stroke-linecap:butt;stroke-linejoin:miter;stroke-opacity:1"
           xml:space="preserve"><tspan
             style="font-style:normal;font-variant:normal;font-weight:bold;font-stretch:normal;font-family:Roboto;-inkscape-font-specification:'Roboto Bold';fill:#ffffff;fill-opacity:1"
             y="330.57571"
             x="285.68362"
             id="tspan4177"
             sodipodi:role="line">1</tspan></text>
</g></g></g></svg>