<?xml version="1.0" encoding="UTF-8" standalone="no"?>
<!-- Created with Inkscape (http://www.inkscape.org/) -->

<svg
   xmlns:dc="http://purl.org/dc/elements/1.1/"
   xmlns:cc="http://creativecommons.org/ns#"
   xmlns:rdf="http://www.w3.org/1999/02/22-rdf-syntax-ns#"
   xmlns:svg="http://www.w3.org/2000/svg"
   xmlns="http://www.w3.org/2000/svg"
   xmlns:sodipodi="http://sodipodi.sourceforge.net/DTD/sodipodi-0.dtd"
   xmlns:inkscape="http://www.inkscape.org/namespaces/inkscape"
   width="80"
   height="80"
   viewBox="0 0 80.000001 80.000001"
   id="svg5461"
   version="1.1"
   inkscape:version="0.91 r13725"
   sodipodi:docname="rain.svg">
  <defs
     id="defs5463" />
  <sodipodi:namedview
     id="base"
     pagecolor="#ffffff"
     bordercolor="#666666"
     borderopacity="1.0"
     inkscape:pageopacity="0.0"
     inkscape:pageshadow="2"
     inkscape:zoom="4.8669303"
     inkscape:cx="40.745601"
     inkscape:cy="39.761408"
     inkscape:document-units="px"
     inkscape:current-layer="layer1"
     showgrid="false"
     units="px"
     inkscape:window-width="1280"
     inkscape:window-height="1002"
     inkscape:window-x="-8"
     inkscape:window-y="49"
     inkscape:window-maximized="1" />
  <metadata
     id="metadata5466">
    <rdf:RDF>
      <cc:Work
         rdf:about="">
        <dc:format>image/svg+xml</dc:format>
        <dc:type
           rdf:resource="http://purl.org/dc/dcmitype/StillImage" />
        <dc:title></dc:title>
      </cc:Work>
    </rdf:RDF>
  </metadata>
  <g
     inkscape:label="Calque 1"
     inkscape:groupmode="layer"
     id="layer1"
     transform="translate(0,-972.36216)">
    <g
       id="g12274"
       transform="matrix(0.96996304,0,0,0.96996304,-62.702677,447.86445)">
      <path
         inkscape:connector-curvature="0"
         style="fill:#ffffff;fill-opacity:1"
         d="m 127.08415,611.8394 c -0.56653,0.69603 -1.17469,1.36662 -1.82215,2.01408 -5.35083,5.35083 -12.36426,8.02856 -19.37769,8.02856 -7.013426,0 -14.026854,-2.67773 -19.379997,-8.02856 -5.286085,-5.28608 -8.026247,-12.30182 -8.026247,-19.38693 0,-4.92767 1.327302,-9.89002 4.046653,-14.32284 l 4.892981,-7.97307 18.46661,-30.09553 7.32329,11.93647 5.61444,9.14775 10.41955,16.98438 c 6.15091,10.02645 5.17763,22.75375 -2.15744,31.69569 z"
         id="path5-4" />
      <path
         inkscape:connector-curvature="0"
         style="fill:#d9edec;fill-opacity:1"
         d="m 127.08415,611.8394 -39.66645,-39.66876 18.46661,-30.09553 7.32329,11.93647 5.61444,9.14775 10.41955,16.98438 c 6.15091,10.02645 5.17763,22.75375 -2.15744,31.69569 z"
         id="path7-21" />
    </g>
  </g>
</svg>
