<?xml version="1.0" encoding="UTF-8" standalone="no"?>
<!-- Created with Inkscape (http://www.inkscape.org/) -->

<svg
   xmlns:dc="http://purl.org/dc/elements/1.1/"
   xmlns:cc="http://creativecommons.org/ns#"
   xmlns:rdf="http://www.w3.org/1999/02/22-rdf-syntax-ns#"
   xmlns:svg="http://www.w3.org/2000/svg"
   xmlns="http://www.w3.org/2000/svg"
   xmlns:sodipodi="http://sodipodi.sourceforge.net/DTD/sodipodi-0.dtd"
   xmlns:inkscape="http://www.inkscape.org/namespaces/inkscape"
   width="80"
   height="80"
   viewBox="0 0 80.000001 80.000001"
   id="svg5461"
   version="1.1"
   inkscape:version="0.91 r13725"
   sodipodi:docname="sun.svg">
  <defs
     id="defs5463" />
  <sodipodi:namedview
     id="base"
     pagecolor="#ffffff"
     bordercolor="#666666"
     borderopacity="1.0"
     inkscape:pageopacity="0.0"
     inkscape:pageshadow="2"
     inkscape:zoom="4.8669303"
     inkscape:cx="40.745601"
     inkscape:cy="39.761408"
     inkscape:document-units="px"
     inkscape:current-layer="layer1"
     showgrid="false"
     units="px"
     inkscape:window-width="1280"
     inkscape:window-height="1002"
     inkscape:window-x="-8"
     inkscape:window-y="49"
     inkscape:window-maximized="1" />
  <metadata
     id="metadata5466">
    <rdf:RDF>
      <cc:Work
         rdf:about="">
        <dc:format>image/svg+xml</dc:format>
        <dc:type
           rdf:resource="http://purl.org/dc/dcmitype/StillImage" />
        <dc:title></dc:title>
      </cc:Work>
    </rdf:RDF>
  </metadata>
  <g
     inkscape:label="Calque 1"
     inkscape:groupmode="layer"
     id="layer1"
     transform="translate(0,-972.36216)">
    <g
       id="g12184"
       transform="matrix(0.96996304,0,0,0.96996304,-70.462382,265.32982)">
      <path
         inkscape:connector-curvature="0"
         style="fill:#ffffff;fill-opacity:1"
         d="m 145.6234,777.33694 7.58314,-6.50874 0.19774,-0.17036 -0.19774,-0.16935 -7.40466,-6.35612 c -1.08809,-1.15957 -1.29749,-2.1209 -0.90758,-3.61055 l 3.3109,-9.42771 0.0872,-0.24692 -0.25605,-0.0477 -9.61277,-1.80655 c -1.49067,-0.36912 -2.24412,-1.20571 -2.56456,-2.64314 l -1.85116,-9.8455 -0.0472,-0.25656 -0.24489,0.0857 -9.22287,3.23992 c -1.49066,0.30777 -2.41092,0.30777 -3.73427,-1.0455 l -6.70546,-7.8118 -0.17036,-0.19774 -0.16935,0.19774 -6.70648,7.81231 c -0.86296,0.93446 -1.70007,1.35326 -3.05485,0.8153 l -9.709617,-3.41078 -0.245402,-0.0862 -0.04817,0.25605 -1.90136,10.11524 c -0.168334,1.15146 -0.378244,1.82074 -2.105693,2.09657 l -9.846005,1.85065 -0.256557,0.0482 0.08721,0.2454 3.234341,9.20816 c 0.811247,2.09302 0.350864,2.38558 -1.01051,3.57203 l -7.591244,6.51583 -0.197235,0.16986 0.197235,0.16935 7.399587,6.35257 c 0.967412,0.91772 1.427288,1.7964 0.908597,3.62779 l -3.30786,9.41503 -0.0862,0.2454 0.255543,0.0482 9.585898,1.80198 c 1.726942,0.33769 2.270985,1.25744 2.598019,2.68118 l 1.844066,9.81304 0.04868,0.25656 0.245909,-0.0877 9.181288,-3.2247 c 1.57281,-0.39954 2.57673,-0.19065 3.61563,1.02217 l 6.49809,7.56944 0.17036,0.19825 0.16985,-0.19825 6.33939,-7.38488 c 0.92635,-0.9375 1.93077,-1.48104 3.65315,-0.91823 l 9.40033,3.30329 0.24793,0.0862 0.0461,-0.25656 1.80148,-9.58032 c 0.33515,-1.60373 0.96234,-2.14727 2.68218,-2.60258 l 9.81305,-1.84356 0.25605,-0.0497 -0.0857,-0.2454 -3.23028,-9.19346 c -0.52427,-1.59917 -0.35644,-2.51943 1.01304,-3.59281 z m -31.74004,20.07887 c -14.977647,0 -27.119481,-12.14183 -27.119481,-27.11897 0,-14.97816 12.141834,-27.11999 27.119481,-27.11999 0.4183,0 0.83407,0.0127 1.24729,0.0314 l 0,0 c 14.39761,0.65255 25.8722,12.52921 25.8722,27.08856 5e-4,14.97765 -12.14184,27.11897 -27.11949,27.11897 z"
         id="path5" />
      <path
         inkscape:connector-curvature="0"
         style="fill:#ffffff;fill-opacity:0.47033901"
         d="m 115.13116,743.20828 0,54.1761 c -0.41373,0.0193 -0.82899,0.0319 -1.24729,0.0319 14.97765,0 27.11999,-12.14183 27.11999,-27.11898 -5.1e-4,-14.55985 -11.47509,-26.43651 -25.8727,-27.08906 z"
         id="path7" />
      <path
         inkscape:connector-curvature="0"
         style="fill:#ffffff;fill-opacity:0.78389827"
         d="m 115.13116,743.20828 0,0 c -0.41373,-0.0188 -0.82899,-0.0314 -1.24729,-0.0314 -14.97765,0 -27.119484,12.14183 -27.119484,27.11999 0,14.97765 12.141834,27.11897 27.119484,27.11897 0.4183,0 0.83406,-0.0127 1.24729,-0.0319 l 0,-54.17559 z"
         id="path9" />
    </g>
  </g>
</svg>
