<?xml version="1.0" encoding="UTF-8" standalone="no"?>
<!-- Created with Inkscape (http://www.inkscape.org/) -->

<svg
   xmlns:dc="http://purl.org/dc/elements/1.1/"
   xmlns:cc="http://creativecommons.org/ns#"
   xmlns:rdf="http://www.w3.org/1999/02/22-rdf-syntax-ns#"
   xmlns:svg="http://www.w3.org/2000/svg"
   xmlns="http://www.w3.org/2000/svg"
   xmlns:sodipodi="http://sodipodi.sourceforge.net/DTD/sodipodi-0.dtd"
   xmlns:inkscape="http://www.inkscape.org/namespaces/inkscape"
   width="80"
   height="80"
   viewBox="0 0 80.000001 80.000001"
   id="svg5461"
   version="1.1"
   inkscape:version="0.91 r13725"
   sodipodi:docname="vent.svg">
  <defs
     id="defs5463" />
  <sodipodi:namedview
     id="base"
     pagecolor="#ffffff"
     bordercolor="#666666"
     borderopacity="1.0"
     inkscape:pageopacity="0.0"
     inkscape:pageshadow="2"
     inkscape:zoom="4.8669303"
     inkscape:cx="29.111562"
     inkscape:cy="39.761408"
     inkscape:document-units="px"
     inkscape:current-layer="layer1"
     showgrid="false"
     units="px"
     inkscape:window-width="1280"
     inkscape:window-height="1002"
     inkscape:window-x="-8"
     inkscape:window-y="49"
     inkscape:window-maximized="1" />
  <metadata
     id="metadata5466">
    <rdf:RDF>
      <cc:Work
         rdf:about="">
        <dc:format>image/svg+xml</dc:format>
        <dc:type
           rdf:resource="http://purl.org/dc/dcmitype/StillImage" />
        <dc:title />
      </cc:Work>
    </rdf:RDF>
  </metadata>
  <g
     inkscape:label="Calque 1"
     inkscape:groupmode="layer"
     id="layer1"
     transform="translate(0,-972.36216)">
    <g
       id="g12296"
       transform="matrix(0.78618179,0,0,0.78618179,-109.26924,255.87271)">
      <path
         id="path3"
         d="m 196.20886,971.88925 -40.19954,0 0,6.1187 40.19954,0 c 4.41546,0 8.00778,3.5924 8.00778,8.0078 0,3.9237 -3.19218,7.1157 -7.11575,7.1157 -1.4819,0 -2.84473,-0.5158 -3.92142,-1.3757 1.65426,-0.9787 2.76432,-2.7799 2.76432,-4.8414 0,-3.1051 -2.5172,-5.6221 -5.62233,-5.6221 -3.07877,0 -5.57802,2.4749 -5.62018,5.5437 l -0.0148,0 c 0,6.8454 5.56904,12.4144 12.41445,12.4144 7.29748,0 13.23445,-5.937 13.23445,-13.2344 -1.9e-4,-7.7896 -6.33732,-14.1267 -14.12648,-14.1267 z"
         style="fill:#ffffff;fill-opacity:0.42372885"
         inkscape:connector-curvature="0" />
      <path
         id="path5-6"
         d="m 219.88144,925.21403 c -8.99838,0 -16.52345,6.42592 -18.22943,14.92987 -0.23697,0.89846 -0.36423,1.84146 -0.36423,2.81448 0,0.11301 0.0357,0.8483 0.0357,0.8483 0.43353,5.68577 5.181,10.16547 10.97783,10.16547 6.0826,0 11.01356,-4.9309 11.01356,-11.01356 0,-5.12479 -3.50039,-9.4315 -8.24045,-10.66103 1.48014,-0.62052 3.10395,-0.96444 4.80681,-0.96444 7.62891,0 13.83526,6.20655 13.83526,13.83523 0,8.4454 -6.87098,15.3162 -15.31619,15.3162 l -78.50357,0 0,6.1187 78.50377,0 c 11.81931,-2e-4 21.43489,-9.616 21.43489,-21.4353 0,-11.0026 -8.95134,-19.95392 -19.95396,-19.95392 z"
         style="fill:#ffffff;fill-opacity:0.80932204"
         inkscape:connector-curvature="0" />
      <path
         id="path7-4"
         d="m 197.04077,943.32379 c 0,-6.15442 -5.00688,-11.1613 -11.16131,-11.1613 -5.68381,0 -10.32491,4.53668 -10.5,10.1785 -0.003,0.0697 -0.005,0.32971 -0.005,0.32971 0.0646,2.34485 1.9812,4.22695 4.34166,4.22695 2.40127,0 4.34773,-1.9467 4.34773,-4.34781 0,-1.17932 -0.47139,-2.24746 -1.23362,-3.03057 0.79033,-0.76474 1.86448,-1.23827 3.04871,-1.23827 2.78052,0 5.04261,2.26208 5.04261,5.04258 0,3.17207 -2.58064,5.75297 -5.75272,5.75297 l -29.16003,0 0,6.1187 29.16003,0 c 6.54579,0 11.87143,-5.3253 11.87143,-11.87146 z"
         style="fill:#ffffff;fill-opacity:0.42372885"
         inkscape:connector-curvature="0" />
      <g
         style="fill:#ffffff;fill-opacity:0.66949152"
         id="g9"
         transform="matrix(0.1951927,0,0,0.1951927,139.89675,912.26278)">
        <path
           id="path11"
           d="m 256,143.339 c 3.387,4.37 5.41,9.848 5.41,15.792 0,6.323 -2.008,12.182 -5.41,16.987 l 0,38.86 c 21.6,-9.343 36.757,-30.855 36.757,-55.846 0,-24.335 -15.287,-45.156 -36.757,-53.396 l 0,37.603 0,0 z"
           style="fill:#ffffff;fill-opacity:0.66949152"
           inkscape:connector-curvature="0" />
        <path
           id="path13"
           d="m 288.495,305.475 -32.495,0 0,31.347 32.495,0 c 22.621,0 41.025,18.404 41.025,41.025 0,20.102 -16.354,36.455 -36.455,36.455 -7.592,0 -14.574,-2.643 -20.09,-7.048 8.475,-5.014 14.162,-14.242 14.162,-24.803 0,-15.908 -12.896,-28.803 -28.804,-28.803 -0.786,0 -1.562,0.04 -2.333,0.102 l 0,79.935 c 10.445,7.518 23.241,11.965 37.064,11.965 37.386,0 67.802,-30.416 67.802,-67.802 0,-39.907 -32.466,-72.373 -72.371,-72.373 z"
           style="fill:#ffffff;fill-opacity:0.66949152"
           inkscape:connector-curvature="0" />
      </g>
      <path
         id="path15"
         d="m 219.88144,925.21403 c -8.99838,0 -16.52345,6.42592 -18.22943,14.92987 -0.23697,0.89846 -0.36423,1.84146 -0.36423,2.81448 0,0.11301 0.0357,0.8483 0.0357,0.8483 0.43353,5.68577 5.181,10.16547 10.97783,10.16547 6.0826,0 11.01356,-4.9309 11.01356,-11.01356 0,-5.12479 -3.50039,-9.4315 -8.24045,-10.66103 1.48014,-0.62052 3.10395,-0.96444 4.80681,-0.96444 7.62891,0 13.83526,6.20655 13.83526,13.83523 0,8.4454 -6.87098,15.3162 -15.31619,15.3162 l -28.53424,0 0,6.1187 28.53444,0 c 11.81931,-2e-4 21.43489,-9.616 21.43489,-21.4353 0,-11.0026 -8.95134,-19.95392 -19.95396,-19.95392 z"
         style="fill:#ffffff;fill-opacity:1"
         inkscape:connector-curvature="0" />
    </g>
  </g>
</svg>
