<?xml version="1.0" encoding="UTF-8" standalone="no"?>
<!-- Generator: Adobe Illustrator 19.0.0, SVG Export Plug-In . SVG Version: 6.00 Build 0)  -->

<svg
   xmlns:dc="http://purl.org/dc/elements/1.1/"
   xmlns:cc="http://creativecommons.org/ns#"
   xmlns:rdf="http://www.w3.org/1999/02/22-rdf-syntax-ns#"
   xmlns:svg="http://www.w3.org/2000/svg"
   xmlns="http://www.w3.org/2000/svg"
   xmlns:sodipodi="http://sodipodi.sourceforge.net/DTD/sodipodi-0.dtd"
   xmlns:inkscape="http://www.inkscape.org/namespaces/inkscape"
   version="1.1"
   id="Layer_1"
   x="0px"
   y="0px"
   viewBox="0 0 100 100"
   xml:space="preserve"
   width="100"
   height="100"
   inkscape:version="0.91 r13725"
   sodipodi:docname="cout_proj.svg"><metadata
     id="metadata43"><rdf:RDF><cc:Work
         rdf:about=""><dc:format>image/svg+xml</dc:format><dc:type
           rdf:resource="http://purl.org/dc/dcmitype/StillImage" /><dc:title></dc:title></cc:Work></rdf:RDF></metadata><defs
     id="defs41" /><sodipodi:namedview
     pagecolor="#ffffff"
     bordercolor="#666666"
     borderopacity="1"
     objecttolerance="10"
     gridtolerance="10"
     guidetolerance="10"
     inkscape:pageopacity="0"
     inkscape:pageshadow="2"
     inkscape:window-width="1280"
     inkscape:window-height="1002"
     id="namedview39"
     showgrid="false"
     inkscape:zoom="3.2345989"
     inkscape:cx="49.91603"
     inkscape:cy="39.853553"
     inkscape:window-x="-8"
     inkscape:window-y="49"
     inkscape:window-maximized="1"
     inkscape:current-layer="text4154" /><g
     id="g9"
     transform="translate(0,-412)" /><g
     id="g11"
     transform="translate(0,-412)" /><g
     id="g13"
     transform="translate(0,-412)" /><g
     id="g15"
     transform="translate(0,-412)" /><g
     id="g17"
     transform="translate(0,-412)" /><g
     id="g19"
     transform="translate(0,-412)" /><g
     id="g21"
     transform="translate(0,-412)" /><g
     id="g23"
     transform="translate(0,-412)" /><g
     id="g25"
     transform="translate(0,-412)" /><g
     id="g27"
     transform="translate(0,-412)" /><g
     id="g29"
     transform="translate(0,-412)" /><g
     id="g31"
     transform="translate(0,-412)" /><g
     id="g33"
     transform="translate(0,-412)" /><g
     id="g35"
     transform="translate(0,-412)" /><g
     id="g37"
     transform="translate(0,-412)" /><g
     transform="scale(0.99999637,1.0000036)"
     style="font-style:normal;font-weight:normal;font-size:68.45582581px;line-height:69.99999881%;font-family:sans-serif;letter-spacing:0px;word-spacing:0px;fill:#ffffff;fill-opacity:1;stroke:none;stroke-width:1px;stroke-linecap:butt;stroke-linejoin:miter;stroke-opacity:1"
     id="text4154"><path
       sodipodi:type="star"
       style="color:#000000;clip-rule:nonzero;display:inline;overflow:visible;visibility:visible;opacity:1;isolation:auto;mix-blend-mode:normal;color-interpolation:sRGB;color-interpolation-filters:linearRGB;solid-color:#000000;solid-opacity:1;fill:#0094ab;fill-opacity:1;fill-rule:nonzero;stroke:#ffffff;stroke-width:0.24267243;stroke-linecap:round;stroke-linejoin:round;stroke-miterlimit:4;stroke-dasharray:none;stroke-dashoffset:0;stroke-opacity:1;color-rendering:auto;image-rendering:auto;shape-rendering:auto;text-rendering:auto;enable-background:accumulate"
       id="path4152"
       sodipodi:sides="5"
       sodipodi:cx="134.77916"
       sodipodi:cy="236.40388"
       sodipodi:r1="93.528206"
       sodipodi:r2="75.665909"
       sodipodi:arg1="0.55968157"
       sodipodi:arg2="1.1880001"
       inkscape:flatsided="true"
       inkscape:rounded="3.1225e-017"
       inkscape:randomized="0"
       d="M 214.03723,286.05954 112.04591,327.12723 41.471174,242.81834 99.8449,149.64489 206.49658,176.36943 Z"
       inkscape:transform-center-x="4.3840549"
       inkscape:transform-center-y="-0.49605975"
       transform="matrix(0.54121657,0.05440968,-0.05440125,0.54121438,-4.081956,-83.639807)" /><path
       style="fill:#e3c213;fill-opacity:0.84745765"
       d="m 38.139588,75.78142 c 0.0984,-0.256376 0.368357,-1.098557 0.599935,-1.871491 0.372988,-1.244912 0.356431,-1.441493 -0.145062,-1.722136 -0.311369,-0.174255 -0.978516,-0.679804 -1.482558,-1.123457 l -0.916436,-0.806638 1.896494,-0.01032 1.896497,-0.01032 0.544378,-1.872595 c 0.29941,-1.029912 0.648195,-1.770655 0.775077,-1.646099 0.126879,0.124495 0.468255,0.929668 0.758607,1.789104 l 0.527907,1.56261 1.935603,0.16698 1.935602,0.166962 -1.525244,1.091765 -1.525244,1.091765 0.503725,1.696209 c 0.277045,0.932916 0.445338,1.754606 0.37398,1.825955 -0.07137,0.07128 -0.768882,-0.340278 -1.550052,-0.914749 l -1.420312,-1.044509 -1.487946,1.048801 c -1.651533,1.164097 -1.958573,1.269634 -1.694944,0.582629 z M 22.674245,72.018242 c 0.002,-0.153396 0.226692,-1.01423 0.499339,-1.91297 0.546466,-1.801304 0.552381,-1.789707 -1.588276,-3.116756 -0.505096,-0.313128 -0.918353,-0.687182 -0.918353,-0.831259 0,-0.144048 0.882124,-0.261947 1.960277,-0.261947 l 1.960278,0 0.423152,-1.511341 c 0.232739,-0.831244 0.540357,-1.583792 0.683596,-1.672308 0.14324,-0.08848 0.510396,0.591581 0.815895,1.511341 l 0.555457,1.672308 2.060329,0.01032 2.060325,0.01032 -0.845793,0.740833 c -0.465186,0.407449 -1.200914,0.97416 -1.634956,1.25936 l -0.789162,0.518573 0.583655,1.757192 c 0.321006,0.966459 0.516229,1.824617 0.433822,1.907033 -0.08242,0.08246 -0.81153,-0.360797 -1.620272,-0.984905 l -1.470437,-1.134731 -1.586246,1.158689 c -0.872431,0.637266 -1.584616,1.033163 -1.58263,0.87978 z m 31.0534,-0.208854 c 0,-0.267856 0.21883,-1.1072 0.486274,-1.865215 l 0.486264,-1.37823 -1.475083,-1.084856 c -0.811297,-0.596668 -1.480946,-1.190056 -1.488109,-1.318656 -0.0072,-0.128615 0.844254,-0.27885 1.892037,-0.333941 l 1.90506,-0.100097 0.491189,-1.586231 c 0.270162,-0.872432 0.606353,-1.586247 0.747108,-1.586247 0.140814,0 0.456882,0.713815 0.702528,1.586247 l 0.446636,1.586231 1.910399,0.100097 c 1.050726,0.05512 1.910413,0.222496 1.910413,0.372011 0,0.149529 -0.601106,0.688431 -1.335795,1.197567 -1.499935,1.039452 -1.537152,1.181957 -0.831288,3.182562 0.277468,0.786427 0.451737,1.482606 0.387268,1.547074 -0.06452,0.06452 -0.741008,-0.334662 -1.503433,-0.886953 -0.762426,-0.552292 -1.553733,-1.00416 -1.758487,-1.00416 -0.204753,0 -0.957434,0.46345 -1.672631,1.029898 -0.891156,0.70579 -1.30035,0.876633 -1.30035,0.542899 z M 11.316453,60.260259 c 0,-0.160582 0.226008,-0.932518 0.502237,-1.715432 0.553704,-1.569358 0.542483,-1.589936 -1.587562,-2.9104 -0.5050923,-0.313128 -0.9183523,-0.687198 -0.9183523,-0.831259 0,-0.144048 0.8821253,-0.261948 1.9602763,-0.261948 l 1.960279,0 0.423155,-1.511341 c 0.232737,-0.83126 0.540354,-1.583792 0.683596,-1.672322 0.14324,-0.08848 0.510392,0.591581 0.815894,1.511355 l 0.555456,1.672308 1.809868,0 c 0.995429,0 1.809866,0.12979 1.809866,0.288538 0,0.158672 -0.601104,0.705084 -1.335783,1.214206 -0.734683,0.509136 -1.334162,1.017962 -1.332175,1.130746 0.002,0.112737 0.220214,0.918835 0.484949,1.791265 0.569394,1.876444 0.290271,1.99471 -1.451651,0.615085 l -1.22618,-0.971133 -1.30248,0.971133 c -1.341342,1.000133 -1.851393,1.187249 -1.851393,0.679199 z m 53.765363,0 c 0,-0.160582 0.228258,-0.938897 0.50724,-1.729603 0.278983,-0.790705 0.37501,-1.523394 0.213412,-1.628211 -1.580338,-1.025063 -2.720169,-1.901933 -2.722049,-2.094103 -0.0013,-0.128615 0.854997,-0.278865 1.902784,-0.333942 l 1.905062,-0.100098 0.491189,-1.586232 c 0.270164,-0.87243 0.610543,-1.586232 0.756413,-1.586232 0.145812,0 0.472713,0.713802 0.726325,1.586232 l 0.461101,1.586232 1.88663,0.100098 c 1.03763,0.05512 1.886615,0.222495 1.886615,0.372011 0,0.149531 -0.601105,0.688431 -1.335778,1.197553 -1.49388,1.035247 -1.535213,1.187527 -0.849693,3.130483 0.567917,1.609633 0.270957,1.734484 -1.291285,0.542899 -0.602004,-0.45916 -1.27825,-0.834861 -1.502758,-0.834861 -0.224509,0 -0.900741,0.375701 -1.502758,0.834861 -1.160614,0.885249 -1.53245,1.016964 -1.53245,0.542913 z M 7.5583994,43.315995 c 0.4950793,-1.740304 0.4931513,-1.897288 -0.02688,-2.188294 -0.308114,-0.17243 -0.972606,-0.67651 -1.476645,-1.120148 L 5.1384383,39.2009 7.0415644,39.19058 8.9446917,39.18026 9.5223847,37.347618 c 0.317732,-1.007953 0.6635323,-1.748697 0.7684433,-1.646115 0.104907,0.102603 0.428313,0.889718 0.71866,1.749168 l 0.527911,1.562611 1.976688,0.166978 1.976688,0.166963 -1.554464,1.119106 -1.554464,1.119104 0.498731,1.463675 c 0.274298,0.80502 0.446276,1.621037 0.382166,1.813356 -0.06412,0.192326 -0.762247,-0.125094 -1.551419,-0.705518 L 10.276462,43.10173 8.8216697,44.14649 c -0.800136,0.574602 -1.5317033,1.044743 -1.6257013,1.044743 -0.094,0 0.06908,-0.843665 0.362423,-1.874798 z m 61.5307856,1.602548 c 0,-0.171417 0.232784,-0.969237 0.517309,-1.77292 0.566402,-1.599932 0.484191,-1.748287 -1.864024,-3.363902 -0.816443,-0.561727 -0.805346,-0.567049 1.219821,-0.584407 l 2.043774,-0.01749 0.426574,-1.586247 c 0.625109,-2.324448 0.872371,-2.371072 1.528936,-0.288258 l 0.590874,1.874505 2.026181,0.01749 c 2.008631,0.01735 2.019037,0.02249 1.202242,0.584407 -2.369088,1.629975 -2.427515,1.742436 -1.822074,3.506993 0.302765,0.882381 0.482443,1.672367 0.399277,1.755533 -0.08319,0.08319 -0.775007,-0.300664 -1.537431,-0.852955 -0.76241,-0.552292 -1.472684,-1.004161 -1.578368,-1.004161 -0.105687,0 -0.670514,0.353506 -1.255186,0.78559 -1.490337,1.101364 -1.897905,1.304472 -1.897905,0.945822 z M 11.316453,29.577384 c 0,-0.170359 0.220297,-1.041746 0.489545,-1.936386 0.269251,-0.89464 0.365287,-1.707467 0.213409,-1.806273 -1.619146,-1.053401 -2.7024803,-1.894566 -2.7043513,-2.099835 -0.0014,-0.137728 0.8798453,-0.250453 1.9579963,-0.250453 l 1.960279,0 0.423155,-1.511355 c 0.232737,-0.831246 0.540354,-1.583778 0.683596,-1.672308 0.14324,-0.08849 0.510392,0.59158 0.815894,1.511356 l 0.555456,1.672307 1.809868,0 c 0.995429,0 1.809866,0.148134 1.809866,0.329209 0,0.181058 -0.601104,0.726986 -1.335783,1.213177 -0.734683,0.486176 -1.335788,0.990388 -1.335788,1.120457 0,0.130085 0.219903,0.967179 0.488676,1.860231 0.26877,0.893039 0.444826,1.667561 0.391239,1.721152 -0.05359,0.05366 -0.68675,-0.348478 -1.407025,-0.893479 -0.720274,-0.544985 -1.467835,-0.995076 -1.661238,-1.000191 -0.193405,-0.0044 -0.982354,0.454544 -1.753219,1.021432 -0.770866,0.566901 -1.401575,0.891332 -1.401575,0.720959 z m 53.765363,-0.373922 c 0,-0.160569 0.228258,-0.938884 0.50724,-1.729589 0.278983,-0.790705 0.37501,-1.523409 0.213412,-1.628226 -1.580338,-1.025048 -2.720169,-1.901932 -2.722049,-2.094088 -0.0013,-0.128615 0.854997,-0.278866 1.902784,-0.333943 l 1.905062,-0.100097 0.491189,-1.586231 c 0.270164,-0.87243 0.603017,-1.586231 0.739686,-1.586231 0.1367,0 0.498038,0.75137 0.803067,1.669719 l 0.554599,1.669721 1.80986,0 c 0.995428,0 1.809872,0.130378 1.809872,0.289566 0,0.159261 -0.601105,0.687359 -1.335778,1.173536 -1.486634,0.983802 -1.544679,1.200329 -0.849693,3.170125 0.567917,1.609617 0.270957,1.734469 -1.291285,0.542899 -0.602004,-0.459175 -1.27825,-0.834861 -1.502758,-0.834861 -0.224509,0 -0.900741,0.375686 -1.502758,0.834861 -1.160614,0.885234 -1.53245,1.016964 -1.53245,0.542899 z M 22.670632,18.044779 c 0,-0.268046 0.228256,-1.134305 0.507229,-1.925009 0.278982,-0.79069 0.375014,-1.523396 0.213411,-1.628212 -1.613163,-1.046347 -2.72016,-1.90474 -2.722037,-2.110757 -0.0014,-0.137728 0.879844,-0.250468 1.957997,-0.250468 l 1.960278,0 0.423152,-1.511341 c 0.232739,-0.8312438 0.540357,-1.5837778 0.683596,-1.6723078 0.14324,-0.08849 0.510396,0.59158 0.815895,1.5113408 l 0.555457,1.672308 1.809869,0 c 0.995428,0 1.809863,0.14815 1.809863,0.329209 0,0.181059 -0.601102,0.727001 -1.335783,1.213176 -1.499201,0.992123 -1.538172,1.139464 -0.831301,3.142935 0.277465,0.786427 0.450771,1.483575 0.385114,1.549235 -0.06567,0.0657 -0.781072,-0.391251 -1.589814,-1.015361 l -1.470437,-1.134716 -1.586246,1.158674 c -1.083753,0.791632 -1.586243,1.004279 -1.586243,0.671294 z m 31.057013,3.37e-4 c 0,-0.268296 0.228252,-1.134759 0.507234,-1.925449 0.278982,-0.790706 0.375009,-1.52341 0.213412,-1.628227 -1.613168,-1.046332 -2.720166,-1.904739 -2.722043,-2.110757 -0.0014,-0.137727 0.885487,-0.250453 1.970537,-0.250453 l 1.972826,0 0.42794,-1.669721 c 0.235356,-0.9183488 0.537724,-1.6697208 0.67191,-1.6697208 0.134199,0 0.493539,0.751372 0.798568,1.6697208 l 0.554599,1.669721 1.809875,0 c 0.995414,0 1.809858,0.129791 1.809858,0.288523 0,0.158688 -0.601106,0.705085 -1.335795,1.214221 -1.499935,1.039452 -1.537152,1.181957 -0.831288,3.182576 0.277468,0.786413 0.45353,1.480813 0.391237,1.543091 -0.06233,0.06233 -0.702556,-0.332662 -1.422841,-0.877663 -0.720268,-0.545001 -1.467833,-0.995078 -1.661239,-1.000191 -0.193407,-0.0044 -0.982347,0.454528 -1.75321,1.02143 -0.981363,0.72171 -1.40158,0.884484 -1.40158,0.542914 z m -15.69548,-4.0187 c 0,-0.05909 0.2491,-0.83855 0.553558,-1.732073 L 39.13928,10.669747 38.013932,9.7302752 c -0.618944,-0.516706 -1.243735,-0.939472 -1.388427,-0.939472 -0.14468,0 -0.263071,-0.150279 -0.263071,-0.333956 0,-0.183661 0.82232,-0.333941 1.827378,-0.333941 l 1.827373,0 0.541143,-1.8614518 c 0.29763,-1.0237978 0.639949,-1.7645418 0.760707,-1.6460988 0.120769,0.118465 0.457125,0.918525 0.747476,1.7779618 l 0.52791,1.562626 1.976688,0.1669628 1.976689,0.166978 -1.586246,1.141933 c -0.872435,0.6280478 -1.586245,1.1648178 -1.586245,1.1927898 0,0.02792 0.242316,0.762028 0.538479,1.63121 0.296164,0.869197 0.453369,1.665443 0.349344,1.769467 -0.104026,0.104063 -0.805672,-0.299179 -1.559222,-0.895993 L 41.33382,12.04417 39.878858,13.089031 c -1.335941,0.959402 -1.846693,1.21866 -1.846693,0.937385 z"
       id="path4201"
       inkscape:connector-curvature="0"
       sodipodi:nodetypes="sssscccscscccccssscsscsssscscscccsscscscscsscscscssscsssscssssssssscscscssscsscssssscscssscssssssssccscccscscccccssscssccsssscsscscssssssssscscscscssssscssssssscscssscssssssssssscscssscsssscscssssscscssscsssscssssssscsssscscscccssscscss" /><path
       d="m 68.722161,71.746863 -3.231826,-6.05235 c -1.880331,0.998927 -3.878188,1.527771 -5.993567,1.527771 -5.288439,0 -9.871763,-3.349348 -12.163422,-8.167733 l 16.100375,0 0,-5.464747 -17.569386,0 c 0,-0.470084 -0.05875,-0.881409 -0.05875,-1.351481 0,-0.470098 0.05875,-0.940182 0.05875,-1.351506 l 17.569386,0 0,-5.464746 -16.100375,0 c 2.291659,-4.877133 6.874983,-8.167734 12.163422,-8.167734 2.056615,0 3.995717,0.470097 5.876048,1.410265 l 3.114306,-6.052361 c -2.820503,-1.469011 -5.81729,-2.174144 -8.990354,-2.174144 -2.820504,0 -5.523488,0.587602 -8.050186,1.762819 -2.467942,1.116458 -4.642079,2.703 -6.522415,4.700868 -2.291659,2.40918 -3.936953,5.347216 -4.935881,8.520287 l -4.348276,0 0,5.464746 3.408108,0 c -0.05875,0.411324 -0.05875,0.881408 -0.05875,1.351506 0,0.470072 0,0.881397 0.05875,1.351481 l -3.408108,0 0,5.464747 4.348276,0 c 0.998928,3.173084 2.644222,6.052348 4.935881,8.520298 1.880336,1.997868 4.054473,3.584397 6.522415,4.700856 2.526698,1.175217 5.229682,1.762818 8.050186,1.762818 3.231827,0 6.346134,-0.763892 9.225393,-2.291661 z"
       style="font-style:normal;font-variant:normal;font-weight:normal;font-stretch:normal;font-family:'ADAM.CG PRO';-inkscape-font-specification:'ADAM.CG PRO';fill:#ffffff;fill-opacity:1"
       id="path4159"
       inkscape:connector-curvature="0" /></g></svg>