<?xml version="1.0" encoding="UTF-8" standalone="no"?>
<!-- Generator: Adobe Illustrator 19.0.0, SVG Export Plug-In . SVG Version: 6.00 Build 0)  -->

<svg
   xmlns:dc="http://purl.org/dc/elements/1.1/"
   xmlns:cc="http://creativecommons.org/ns#"
   xmlns:rdf="http://www.w3.org/1999/02/22-rdf-syntax-ns#"
   xmlns:svg="http://www.w3.org/2000/svg"
   xmlns="http://www.w3.org/2000/svg"
   xmlns:sodipodi="http://sodipodi.sourceforge.net/DTD/sodipodi-0.dtd"
   xmlns:inkscape="http://www.inkscape.org/namespaces/inkscape"
   version="1.1"
   id="Layer_1"
   x="0px"
   y="0px"
   viewBox="0 0 100 100"
   xml:space="preserve"
   width="100"
   height="100"
   inkscape:version="0.91 r13725"
   sodipodi:docname="number_key.svg"><metadata
     id="metadata43"><rdf:RDF><cc:Work
         rdf:about=""><dc:format>image/svg+xml</dc:format><dc:type
           rdf:resource="http://purl.org/dc/dcmitype/StillImage" /><dc:title /></cc:Work></rdf:RDF></metadata><defs
     id="defs41" /><sodipodi:namedview
     pagecolor="#ffffff"
     bordercolor="#666666"
     borderopacity="1"
     objecttolerance="10"
     gridtolerance="10"
     guidetolerance="10"
     inkscape:pageopacity="0"
     inkscape:pageshadow="2"
     inkscape:window-width="1280"
     inkscape:window-height="1002"
     id="namedview39"
     showgrid="false"
     inkscape:zoom="4.5744136"
     inkscape:cx="120.26458"
     inkscape:cy="-0.73968633"
     inkscape:window-x="-8"
     inkscape:window-y="49"
     inkscape:window-maximized="1"
     inkscape:current-layer="text4151" /><g
     id="g9"
     transform="translate(0,-412)" /><g
     id="g11"
     transform="translate(0,-412)" /><g
     id="g13"
     transform="translate(0,-412)" /><g
     id="g15"
     transform="translate(0,-412)" /><g
     id="g17"
     transform="translate(0,-412)" /><g
     id="g19"
     transform="translate(0,-412)" /><g
     id="g21"
     transform="translate(0,-412)" /><g
     id="g23"
     transform="translate(0,-412)" /><g
     id="g25"
     transform="translate(0,-412)" /><g
     id="g27"
     transform="translate(0,-412)" /><g
     id="g29"
     transform="translate(0,-412)" /><g
     id="g31"
     transform="translate(0,-412)" /><g
     id="g33"
     transform="translate(0,-412)" /><g
     id="g35"
     transform="translate(0,-412)" /><g
     id="g37"
     transform="translate(0,-412)" /><g
     transform="scale(0.99999637,1.0000036)"
     style="font-style:normal;font-weight:normal;font-size:68.45582581px;line-height:69.99999881%;font-family:sans-serif;letter-spacing:0px;word-spacing:0px;fill:#ffffff;fill-opacity:1;stroke:none;stroke-width:1px;stroke-linecap:butt;stroke-linejoin:miter;stroke-opacity:1"
     id="text4154"><g
       id="g4162"
       transform="translate(-1.2647037,1.5573725)"><g
         transform="scale(1.0000036,0.9999964)"
         style="font-style:normal;font-weight:normal;font-size:84.59444427px;line-height:69.99999881%;font-family:sans-serif;letter-spacing:0px;word-spacing:0px;fill:#ffffff;fill-opacity:1;stroke:none;stroke-width:1px;stroke-linecap:butt;stroke-linejoin:miter;stroke-opacity:1"
         id="text4151"><g
           id="g4166"><path
             sodipodi:type="star"
             style="font-style:normal;font-weight:normal;font-size:68.45582581px;line-height:69.99999881%;font-family:sans-serif;letter-spacing:0px;word-spacing:0px;fill:#0094ab;fill-opacity:1;stroke:#ffffff;stroke-width:0.24267243;stroke-linecap:round;stroke-linejoin:round;stroke-opacity:1;color:#000000;clip-rule:nonzero;display:inline;overflow:visible;visibility:visible;opacity:1;isolation:auto;mix-blend-mode:normal;color-interpolation:sRGB;color-interpolation-filters:linearRGB;solid-color:#000000;solid-opacity:1;fill-rule:nonzero;stroke-miterlimit:4;stroke-dasharray:none;stroke-dashoffset:0;color-rendering:auto;image-rendering:auto;shape-rendering:auto;text-rendering:auto;enable-background:accumulate"
             id="path4152"
             sodipodi:sides="5"
             sodipodi:cx="134.77916"
             sodipodi:cy="236.40388"
             sodipodi:r1="93.528206"
             sodipodi:r2="75.665909"
             sodipodi:arg1="0.55968157"
             sodipodi:arg2="1.1880001"
             inkscape:flatsided="true"
             inkscape:rounded="3.1225e-017"
             inkscape:randomized="0"
             d="M 214.03723,286.05954 112.04591,327.12723 41.471174,242.81834 99.8449,149.64489 206.49658,176.36943 Z"
             inkscape:transform-center-x="4.1803036"
             inkscape:transform-center-y="0.7076528"
             transform="matrix(0.15582014,0.52114659,-0.52114484,0.15582896,157.64437,-59.343289)" /><path
             inkscape:connector-curvature="0"
             id="path4163"
             d="m 35.415576,62.558515 0,-4.418086 3.534469,0 3.53447,0 0,4.418086 0,4.418086 -3.53447,0 -3.534469,0 0,-4.418086 z m 11.540169,-6.461451 0.05731,-10.879538 3.479243,-0.06084 3.479242,-0.06083 0,10.940374 0,10.940372 -3.536549,0 -3.536552,0 0.05731,-10.879537 z m 11.433878,2.590154 0,-8.289384 3.589695,0.0607 3.589695,0.0607 0.05791,8.228685 0.05791,8.228686 -3.64761,0 -3.64761,0 0,-8.289384 z m 11.540617,-5.793267 0.05686,-14.08265 3.534469,0 3.53447,0 0.05686,14.08265 0.05686,14.08265 -3.648191,0 -3.64819,0 0.05686,-14.08265 z M 36.787144,42.887788 c -0.686135,-0.275399 -1.16909,-1.454655 -0.896591,-2.189254 0.11462,-0.308994 3.408925,-3.767553 7.320675,-7.685689 l 7.112273,-7.123881 4.753649,4.749966 4.753649,4.749967 2.643012,-2.649916 2.643011,-2.649917 -1.304994,-1.318756 c -0.911175,-0.920782 -1.209599,-1.352 -0.98888,-1.428912 0.917319,-0.319652 10.255564,-2.742855 10.320362,-2.678056 0.08152,0.08152 -2.606347,10.32443 -2.753395,10.492635 -0.0481,0.05503 -0.654422,-0.466909 -1.347371,-1.159858 l -1.259906,-1.259905 -3.980623,3.976261 -3.98062,3.976261 -4.743812,-4.747664 -4.743811,-4.747665 -5.977248,5.962766 c -6.227188,6.212099 -6.277457,6.250164 -7.56938,5.731617 z"
             style="fill:#ffffff;fill-opacity:1" /></g></g></g></g></svg>