<?xml version="1.0" encoding="UTF-8" standalone="no"?>
<!-- Generator: Adobe Illustrator 19.0.0, SVG Export Plug-In . SVG Version: 6.00 Build 0)  -->

<svg
   xmlns:dc="http://purl.org/dc/elements/1.1/"
   xmlns:cc="http://creativecommons.org/ns#"
   xmlns:rdf="http://www.w3.org/1999/02/22-rdf-syntax-ns#"
   xmlns:svg="http://www.w3.org/2000/svg"
   xmlns="http://www.w3.org/2000/svg"
   xmlns:sodipodi="http://sodipodi.sourceforge.net/DTD/sodipodi-0.dtd"
   xmlns:inkscape="http://www.inkscape.org/namespaces/inkscape"
   version="1.1"
   id="Layer_1"
   x="0px"
   y="0px"
   viewBox="0 0 512 512"
   style="enable-background:new 0 0 512 512;"
   xml:space="preserve"
   width="512px"
   height="512px"
   inkscape:version="0.91 r13725"
   sodipodi:docname="placeholder_europe.svg"><metadata
     id="metadata43"><rdf:RDF><cc:Work
         rdf:about=""><dc:format>image/svg+xml</dc:format><dc:type
           rdf:resource="http://purl.org/dc/dcmitype/StillImage" /><dc:title /></cc:Work></rdf:RDF></metadata><defs
     id="defs41" /><sodipodi:namedview
     pagecolor="#ffffff"
     bordercolor="#666666"
     borderopacity="1"
     objecttolerance="10"
     gridtolerance="10"
     guidetolerance="10"
     inkscape:pageopacity="0"
     inkscape:pageshadow="2"
     inkscape:window-width="1280"
     inkscape:window-height="1002"
     id="namedview39"
     showgrid="false"
     inkscape:zoom="1.3021869"
     inkscape:cx="247.89158"
     inkscape:cy="200.64504"
     inkscape:window-x="-8"
     inkscape:window-y="49"
     inkscape:window-maximized="1"
     inkscape:current-layer="Layer_1" /><g
     id="g9" /><g
     id="g11" /><g
     id="g13" /><g
     id="g15" /><g
     id="g17" /><g
     id="g19" /><g
     id="g21" /><g
     id="g23" /><g
     id="g25" /><g
     id="g27" /><g
     id="g29" /><g
     id="g31" /><g
     id="g33" /><g
     id="g35" /><g
     id="g37" /><path
     inkscape:connector-curvature="0"
     id="path4226"
     d="M 245.93057,505.76932 C 227.2707,496.48339 174.77754,449.45977 149.71039,419.57485 98.197289,358.16123 69.185887,295.44827 61.691841,229.30813 59.557734,210.4732 60.868992,173.50161 64.179729,159.16056 73.156181,120.27742 90.405204,88.795181 117.51493,61.815215 c 17.2238,-17.141338 31.60346,-27.544153 51.53141,-37.279831 25.07098,-12.248288 44.07868,-17.4547878 72.952,-19.9827016 43.16279,-3.7789861 85.31027,7.3877236 122.99448,32.5866476 41.0689,27.462222 70.0605,69.92176 82.04668,120.16112 4.30653,18.05056 5.38403,53.96344 2.33729,77.90067 -9.04975,71.10056 -44.82414,140.39425 -105.58715,204.51836 -23.14046,24.42046 -60.33989,56.25349 -76.60834,65.55679 -6.41518,3.6686 -14.49294,3.85602 -21.25073,0.49305 z M 270.1119,266.22731 c 22.91259,-4.19353 44.30143,-24.24104 51.38599,-48.16352 2.59786,-8.77219 2.62184,-26.81045 0.0486,-36.57647 -7.66674,-29.09728 -35.74558,-50.14438 -66.98494,-50.20996 -30.39195,-0.0638 -58.61205,22.43838 -65.66721,52.36181 -9.23271,39.15915 18.06426,79.06269 57.33136,83.8087 8.73732,1.05606 12.49695,0.86394 23.88618,-1.22056 z"
     style="fill:#0094ab;fill-opacity:1" /><path
     inkscape:connector-curvature="0"
     id="path4224"
     d="m 258.2825,504.2095 c -0.32502,-0.85255 -0.447,-53.69472 -0.27109,-117.42702 l 0.31983,-115.87695 9.14249,-1.67608 c 27.45134,-5.03261 49.67346,-25.46539 56.59465,-52.03766 1.01562,-3.89921 1.84657,-11.77446 1.84657,-17.50053 0,-20.26952 -6.19965,-34.98806 -21.03942,-49.94954 -10.8929,-10.98222 -20.53757,-16.18035 -36.32141,-19.57584 l -10.22288,-2.19919 0,-60.667253 0,-60.6672499 11.5231,0.2972327 c 6.33771,0.1634779 17.07926,1.429498 23.87011,2.813387 59.27764,12.0800092 109.33599,50.7316532 135.6962,104.7753032 15.64368,32.07264 21.88461,65.53933 19.21282,103.02774 -4.53272,63.59944 -28.29798,122.8034 -72.783,181.31695 -27.68167,36.41116 -76.99572,83.65112 -107.53144,103.0088 -6.61306,4.19224 -9.10803,4.77341 -10.03653,2.3379 z"
     style="fill:#048195;fill-opacity:1;stroke:#048195;stroke-width:4.23276567;stroke-miterlimit:4;stroke-dasharray:none;stroke-opacity:1" /><circle
     style="opacity:1;fill:#ffffff;fill-opacity:1;stroke:none;stroke-width:10;stroke-linecap:round;stroke-linejoin:round;stroke-miterlimit:4;stroke-dasharray:none;stroke-dashoffset:0;stroke-opacity:1"
     id="path4236"
     cx="257.6687"
     cy="192.92976"
     r="108.66412" /><path
     sodipodi:type="star"
     style="color:#000000;clip-rule:nonzero;display:inline;overflow:visible;visibility:visible;opacity:1;isolation:auto;mix-blend-mode:normal;color-interpolation:sRGB;color-interpolation-filters:linearRGB;solid-color:#000000;solid-opacity:1;fill:#e3c213;fill-opacity:1;fill-rule:nonzero;stroke:#ffffff;stroke-width:0.15727468;stroke-linecap:round;stroke-linejoin:round;stroke-miterlimit:4;stroke-dasharray:none;stroke-dashoffset:0;stroke-opacity:1;color-rendering:auto;image-rendering:auto;shape-rendering:auto;text-rendering:auto;enable-background:accumulate"
     id="path4151"
     sodipodi:sides="5"
     sodipodi:cx="255.0601"
     sodipodi:cy="190.60333"
     sodipodi:r1="51.536579"
     sodipodi:r2="108.24162"
     sodipodi:arg1="0.32723133"
     sodipodi:arg2="0.95554987"
     inkscape:flatsided="false"
     inkscape:rounded="3.1225e-017"
     inkscape:randomized="0"
     d="m 303.86194,207.16835 13.67088,71.82847 -63.14639,-36.86131 -64.0884,35.19799 15.54389,-71.44655 -53.27969,-50.07491 72.75303,-7.29509 31.15975,-66.145992 29.41996,66.937942 72.53747,9.19444 z"
     transform="matrix(0.83924739,-0.0094867,0.00948671,0.83923729,41.202613,41.779956)" /></svg>