<?xml version="1.0" encoding="UTF-8" standalone="no"?>
<!-- Generator: Adobe Illustrator 19.0.0, SVG Export Plug-In . SVG Version: 6.00 Build 0)  -->

<svg
   xmlns:dc="http://purl.org/dc/elements/1.1/"
   xmlns:cc="http://creativecommons.org/ns#"
   xmlns:rdf="http://www.w3.org/1999/02/22-rdf-syntax-ns#"
   xmlns:svg="http://www.w3.org/2000/svg"
   xmlns="http://www.w3.org/2000/svg"
   xmlns:sodipodi="http://sodipodi.sourceforge.net/DTD/sodipodi-0.dtd"
   xmlns:inkscape="http://www.inkscape.org/namespaces/inkscape"
   version="1.1"
   id="Layer_1"
   x="0px"
   y="0px"
   viewBox="0 0 100 100"
   xml:space="preserve"
   width="100"
   height="100"
   inkscape:version="0.91 r13725"
   sodipodi:docname="number_key.svg"><metadata
     id="metadata43"><rdf:RDF><cc:Work
         rdf:about=""><dc:format>image/svg+xml</dc:format><dc:type
           rdf:resource="http://purl.org/dc/dcmitype/StillImage" /><dc:title /></cc:Work></rdf:RDF></metadata><defs
     id="defs41" /><sodipodi:namedview
     pagecolor="#ffffff"
     bordercolor="#666666"
     borderopacity="1"
     objecttolerance="10"
     gridtolerance="10"
     guidetolerance="10"
     inkscape:pageopacity="0"
     inkscape:pageshadow="2"
     inkscape:window-width="1280"
     inkscape:window-height="1002"
     id="namedview39"
     showgrid="false"
     inkscape:zoom="6.4691977"
     inkscape:cx="54.163611"
     inkscape:cy="56.373951"
     inkscape:window-x="-8"
     inkscape:window-y="49"
     inkscape:window-maximized="1"
     inkscape:current-layer="text4151" /><g
     id="g9"
     transform="translate(0,-412)" /><g
     id="g11"
     transform="translate(0,-412)" /><g
     id="g13"
     transform="translate(0,-412)" /><g
     id="g15"
     transform="translate(0,-412)" /><g
     id="g17"
     transform="translate(0,-412)" /><g
     id="g19"
     transform="translate(0,-412)" /><g
     id="g21"
     transform="translate(0,-412)" /><g
     id="g23"
     transform="translate(0,-412)" /><g
     id="g25"
     transform="translate(0,-412)" /><g
     id="g27"
     transform="translate(0,-412)" /><g
     id="g29"
     transform="translate(0,-412)" /><g
     id="g31"
     transform="translate(0,-412)" /><g
     id="g33"
     transform="translate(0,-412)" /><g
     id="g35"
     transform="translate(0,-412)" /><g
     id="g37"
     transform="translate(0,-412)" /><g
     transform="scale(0.99999637,1.0000036)"
     style="font-style:normal;font-weight:normal;font-size:68.45582581px;line-height:69.99999881%;font-family:sans-serif;letter-spacing:0px;word-spacing:0px;fill:#ffffff;fill-opacity:1;stroke:none;stroke-width:1px;stroke-linecap:butt;stroke-linejoin:miter;stroke-opacity:1"
     id="text4154"><g
       id="g4162"
       transform="translate(-1.2647037,1.5573725)"><path
         transform="matrix(0.15582071,0.52114471,-0.52114671,0.1558284,157.64494,-59.343075)"
         inkscape:transform-center-y="0.7076528"
         inkscape:transform-center-x="4.1803036"
         d="M 214.03723,286.05954 112.04591,327.12723 41.471174,242.81834 99.8449,149.64489 206.49658,176.36943 Z"
         inkscape:randomized="0"
         inkscape:rounded="3.1225e-017"
         inkscape:flatsided="true"
         sodipodi:arg2="1.1880001"
         sodipodi:arg1="0.55968157"
         sodipodi:r2="75.665909"
         sodipodi:r1="93.528206"
         sodipodi:cy="236.40388"
         sodipodi:cx="134.77916"
         sodipodi:sides="5"
         id="path4152"
         style="color:#000000;clip-rule:nonzero;display:inline;overflow:visible;visibility:visible;opacity:1;isolation:auto;mix-blend-mode:normal;color-interpolation:sRGB;color-interpolation-filters:linearRGB;solid-color:#000000;solid-opacity:1;fill:#0094ab;fill-opacity:1;fill-rule:nonzero;stroke:#ffffff;stroke-width:0.24267243;stroke-linecap:round;stroke-linejoin:round;stroke-miterlimit:4;stroke-dasharray:none;stroke-dashoffset:0;stroke-opacity:1;color-rendering:auto;image-rendering:auto;shape-rendering:auto;text-rendering:auto;enable-background:accumulate"
         sodipodi:type="star" /><g
         transform="scale(1.0000036,0.9999964)"
         style="font-style:normal;font-weight:normal;font-size:84.59444427px;line-height:69.99999881%;font-family:sans-serif;letter-spacing:0px;word-spacing:0px;fill:#ffffff;fill-opacity:1;stroke:none;stroke-width:1px;stroke-linecap:butt;stroke-linejoin:miter;stroke-opacity:1"
         id="text4151"><path
           d="m 70.280215,32.581164 q 0,5.583233 -4.991073,9.643767 -1.691889,1.353511 -9.305389,5.414044 -4.991072,2.707022 -4.991072,5.075667 0,2.707022 3.129995,2.707022 4.145127,0 6.429177,-3.129995 0.76135,-1.015133 0.930539,-1.015133 0.507567,0 1.691889,3.891345 1.5227,1.861077 1.5227,2.622427 0,0.592161 -0.76135,1.438106 -3.891344,4.145128 -10.743494,4.145128 -5.32945,0 -8.459445,-2.622428 -3.129994,-2.707022 -3.129994,-7.867283 0,-5.075667 4.483505,-8.628634 4.229723,-2.537833 8.544039,-5.244855 4.398911,-2.707023 4.398911,-5.837017 0,-4.229722 -5.583233,-4.229722 -4.991072,0 -8.797822,3.299183 -0.592161,0.507567 -1.015133,0.507567 -0.507567,0 -1.5227,-3.975939 -1.861078,-2.622428 -1.861078,-3.383778 0,-0.676755 1.268916,-1.607294 2.28405,-1.607295 6.513773,-2.707023 3.891344,-0.930538 7.105933,-0.930538 6.513772,0 10.574306,2.876211 4.5681,3.299183 4.5681,9.559172 z M 57.591048,75.132169 q 0,1.607295 -1.184322,1.607295 l -7.359717,0 q -1.268917,0 -1.268917,-1.691889 0,-0.592161 0.0846,-1.691889 0.08459,-1.184322 0.08459,-1.776483 0,-0.507567 -0.08459,-1.438106 -0.0846,-0.930539 -0.0846,-1.438105 0,-1.5227 1.184323,-1.5227 l 7.359716,0 q 1.184322,0 1.184322,1.607294 0,0.507567 -0.169188,1.5227 -0.169189,0.930539 -0.169189,1.438106 0,0.592161 0.169189,1.691888 0.253783,1.099728 0.253783,1.691889 z"
           style="font-style:normal;font-variant:normal;font-weight:normal;font-stretch:normal;font-family:SpotkaBold;-inkscape-font-specification:SpotkaBold;fill:#ffffff;fill-opacity:1"
           id="path4153" /></g></g></g></svg>