<?xml version="1.0" encoding="UTF-8" standalone="no"?>
<!-- Created with Inkscape (http://www.inkscape.org/) -->

<svg
   xmlns:dc="http://purl.org/dc/elements/1.1/"
   xmlns:cc="http://creativecommons.org/ns#"
   xmlns:rdf="http://www.w3.org/1999/02/22-rdf-syntax-ns#"
   xmlns:svg="http://www.w3.org/2000/svg"
   xmlns="http://www.w3.org/2000/svg"
   xmlns:sodipodi="http://sodipodi.sourceforge.net/DTD/sodipodi-0.dtd"
   xmlns:inkscape="http://www.inkscape.org/namespaces/inkscape"
   width="100"
   height="100"
   viewBox="0 0 99.999994 100"
   id="svg2"
   version="1.1"
   inkscape:version="0.91 r13725"
   sodipodi:docname="calendar.svg">
  <defs
     id="defs4" />
  <sodipodi:namedview
     id="base"
     pagecolor="#ffffff"
     bordercolor="#666666"
     borderopacity="1.0"
     inkscape:pageopacity="0.0"
     inkscape:pageshadow="2"
     inkscape:zoom="6.6548353"
     inkscape:cx="48.369831"
     inkscape:cy="50.754259"
     inkscape:document-units="px"
     inkscape:current-layer="layer1"
     showgrid="false"
     units="px"
     inkscape:window-width="1280"
     inkscape:window-height="1002"
     inkscape:window-x="-8"
     inkscape:window-y="-8"
     inkscape:window-maximized="1" />
  <metadata
     id="metadata7">
    <rdf:RDF>
      <cc:Work
         rdf:about="">
        <dc:format>image/svg+xml</dc:format>
        <dc:type
           rdf:resource="http://purl.org/dc/dcmitype/StillImage" />
        <dc:title />
      </cc:Work>
    </rdf:RDF>
  </metadata>
  <g
     inkscape:label="Calque 1"
     inkscape:groupmode="layer"
     id="layer1"
     transform="translate(0,-952.3622)">
    <g
       id="g4136"
       transform="translate(0,-1.6906738e-6)">
      <rect
         ry="6.9122672"
         y="955.10333"
         x="3.4173241"
         height="94.517738"
         width="93.165344"
         id="rect4134"
         style="color:#000000;clip-rule:nonzero;display:inline;overflow:visible;visibility:visible;opacity:1;isolation:auto;mix-blend-mode:normal;color-interpolation:sRGB;color-interpolation-filters:linearRGB;solid-color:#000000;solid-opacity:1;fill:#9fb935;fill-opacity:1;fill-rule:nonzero;stroke:#9fb935;stroke-width:3;stroke-linecap:butt;stroke-linejoin:miter;stroke-miterlimit:10;stroke-dasharray:none;stroke-dashoffset:0;stroke-opacity:1;color-rendering:auto;image-rendering:auto;shape-rendering:auto;text-rendering:auto;enable-background:accumulate" />
      <path
         inkscape:connector-curvature="0"
         id="path4160"
         d="m 16.232215,1006.3386 0,-30.32446 2.855655,0.17472 c 1.570611,0.0961 3.72901,0.17472 4.796441,0.17472 l 1.940785,0 0.102645,2.21102 c 0.120338,2.59208 0.626504,3.81878 2.199376,5.3301 1.171441,1.12561 3.41446,2.10679 4.816305,2.10679 1.656489,0 3.6581,-0.79438 4.910569,-1.94886 1.743878,-1.60747 2.299301,-2.85477 2.443811,-5.48803 l 0.121333,-2.21102 9.614272,0 9.614277,0 0,1.73191 c 0,2.45743 0.76848,4.34281 2.387399,5.8571 1.301781,1.21767 3.282802,2.0589 4.848514,2.0589 1.497443,0 3.535184,-0.84018 4.756006,-1.96095 1.730309,-1.58845 2.474013,-3.31282 2.477289,-5.74399 l 0.003,-1.94297 4.823939,0 4.823947,0 0,30.14972 0,30.1496 -33.767591,0 -33.76759,0 0,-30.3243 z m 62.711235,6.2046 0,-19.29582 -28.943645,0 -28.943649,0 0,19.29582 0,19.2958 28.943649,0 28.943645,0 0,-19.2958 z m -50.651382,11.6578 0,-3.3499 3.751954,0 3.751955,0 0,3.3499 0,3.35 -3.751955,0 -3.751954,0 0,-3.35 z m 12.059853,0 0,-3.3499 3.751957,0 3.751951,0 0,3.3499 0,3.35 -3.751951,0 -3.751957,0 0,-3.35 z m 12.327847,0 0,-3.3499 3.751959,0 3.751951,0 0,3.3499 0,3.35 -3.751951,0 -3.751959,0 0,-3.35 z m 11.523866,0 0,-3.3499 3.751951,0 3.751952,0 0,3.3499 0,3.35 -3.751952,0 -3.751951,0 0,-3.35 z m -35.911566,-11.2558 0,-3.35 3.751954,0 3.751955,0 0,3.35 0,3.3499 -3.751955,0 -3.751954,0 0,-3.3499 z m 12.059853,0 0,-3.35 3.751957,0 3.751951,0 0,3.35 0,3.3499 -3.751951,0 -3.751957,0 0,-3.3499 z m 12.327847,0 0,-3.35 3.751959,0 3.751951,0 0,3.35 0,3.3499 -3.751951,0 -3.751959,0 0,-3.3499 z m 11.523866,0 0,-3.35 3.751951,0 3.751952,0 0,3.35 0,3.3499 -3.751952,0 -3.751951,0 0,-3.3499 z m -23.851713,-11.2559 0,-3.34992 3.751957,0 3.751951,0 0,3.34992 0,3.35 -3.751951,0 -3.751957,0 0,-3.35 z m 12.327847,0 0,-3.34992 3.751959,0 3.751951,0 0,3.34992 0,3.35 -3.751951,0 -3.751959,0 0,-3.35 z m 11.523866,0 0,-3.34992 3.751951,0 3.751952,0 0,3.34992 0,3.35 -3.751952,0 -3.751951,0 0,-3.35 z M 31.074922,982.01485 c -0.606703,-0.27551 -1.450893,-0.95694 -1.875977,-1.5143 l -0.772878,-1.01326 0,-4.19568 0,-4.19569 0.772878,-1.01326 c 0.868149,-1.13822 2.53776,-2.01227 3.860742,-2.02107 1.658009,-0.0112 3.722771,1.43335 4.326418,3.0265 0.157216,0.41494 0.285849,2.30651 0.285849,4.20352 0,1.89701 -0.128633,3.78857 -0.285849,4.20351 -0.406487,1.07287 -1.287929,1.95349 -2.528117,2.52592 -1.359622,0.62749 -2.391352,0.62577 -3.783066,-0.007 z m 34.115959,0.13854 c -2.48093,-0.91912 -3.119451,-2.32367 -3.119451,-6.86178 0,-2.68893 0.09795,-3.56566 0.49644,-4.443 1.606639,-3.53746 6.421596,-3.68189 8.388398,-0.25156 0.560717,0.97798 0.617274,1.40806 0.617274,4.69456 0,3.28649 -0.05655,3.71658 -0.617274,4.69455 -1.182066,2.06166 -3.598508,2.97003 -5.765387,2.16723 z"
         style="fill:#ffffff;fill-opacity:1" />
    </g>
  </g>
</svg>
