<?xml version="1.0" encoding="UTF-8" standalone="no"?>
<!-- Created with Inkscape (http://www.inkscape.org/) -->

<svg
   xmlns:dc="http://purl.org/dc/elements/1.1/"
   xmlns:cc="http://creativecommons.org/ns#"
   xmlns:rdf="http://www.w3.org/1999/02/22-rdf-syntax-ns#"
   xmlns:svg="http://www.w3.org/2000/svg"
   xmlns="http://www.w3.org/2000/svg"
   xmlns:sodipodi="http://sodipodi.sourceforge.net/DTD/sodipodi-0.dtd"
   xmlns:inkscape="http://www.inkscape.org/namespaces/inkscape"
   width="100"
   height="100"
   viewBox="0 0 99.999994 100"
   id="svg2"
   version="1.1"
   inkscape:version="0.91 r13725"
   sodipodi:docname="leaf.svg">
  <defs
     id="defs4" />
  <sodipodi:namedview
     id="base"
     pagecolor="#ffffff"
     bordercolor="#666666"
     borderopacity="1.0"
     inkscape:pageopacity="0.0"
     inkscape:pageshadow="2"
     inkscape:zoom="6.6548353"
     inkscape:cx="48.369831"
     inkscape:cy="50.754259"
     inkscape:document-units="px"
     inkscape:current-layer="layer1"
     showgrid="false"
     units="px"
     inkscape:window-width="1280"
     inkscape:window-height="1002"
     inkscape:window-x="-8"
     inkscape:window-y="-8"
     inkscape:window-maximized="1" />
  <metadata
     id="metadata7">
    <rdf:RDF>
      <cc:Work
         rdf:about="">
        <dc:format>image/svg+xml</dc:format>
        <dc:type
           rdf:resource="http://purl.org/dc/dcmitype/StillImage" />
        <dc:title></dc:title>
      </cc:Work>
    </rdf:RDF>
  </metadata>
  <g
     inkscape:label="Calque 1"
     inkscape:groupmode="layer"
     id="layer1"
     transform="translate(0,-952.3622)">
    <rect
       style="color:#000000;clip-rule:nonzero;display:inline;overflow:visible;visibility:visible;opacity:1;isolation:auto;mix-blend-mode:normal;color-interpolation:sRGB;color-interpolation-filters:linearRGB;solid-color:#000000;solid-opacity:1;fill:#9fb935;fill-opacity:1;fill-rule:nonzero;stroke:#9fb935;stroke-width:3;stroke-linecap:butt;stroke-linejoin:miter;stroke-miterlimit:10;stroke-dasharray:none;stroke-dashoffset:0;stroke-opacity:1;color-rendering:auto;image-rendering:auto;shape-rendering:auto;text-rendering:auto;enable-background:accumulate"
       id="rect4134"
       width="93.165344"
       height="94.517738"
       x="3.4173241"
       y="955.10333"
       ry="6.9122672" />
    <path
       style="fill:#ffffff;fill-opacity:1"
       d="m 29.010962,1036.7496 c 1.500001,-7.1809 3.624507,-12.4965 6.287275,-15.7312 0.429822,-0.5221 1.789064,-1.7098 3.020538,-2.6393 7.698316,-5.8103 14.177605,-13.6525 18.78269,-22.73354 1.647943,-3.2496 4.200614,-9.24398 4.181459,-9.81912 -0.0037,-0.1119 -0.787616,1.41016 -1.741979,3.38252 -4.945629,10.2208 -12.876141,19.69234 -22.735259,27.15324 -2.610413,1.9754 -5.003098,4.4354 -6.485513,6.6681 l -0.985083,1.4837 -0.608144,-1.0077 c -0.862076,-1.4284 -2.262316,-5.0667 -2.881178,-7.4865 -2.644393,-10.3395 -0.162181,-19.70684 7.279265,-27.4706 5.079281,-5.2992 10.981163,-8.98375 20.555206,-12.83241 5.68653,-2.28593 7.870419,-3.58842 13.191425,-7.8672 0.772671,-0.62132 0.77863,-0.62177 1.18917,-0.0755 0.900568,1.19865 3.702434,7.3011 4.601768,10.02265 2.769014,8.37948 3.299153,17.96052 1.364905,24.66746 -1.467688,5.0891 -4.589205,10.499 -8.311053,14.4039 -2.82943,2.9685 -5.089671,4.6341 -8.682968,6.3987 -5.091817,2.5007 -10.670091,3.5453 -17.19996,3.2213 l -3.195647,-0.1585 -0.871382,1.8258 c -1.105406,2.3162 -1.848136,4.4717 -2.084989,6.0512 -0.102058,0.6805 -0.326574,1.3485 -0.49894,1.4843 -0.172365,0.1352 -1.209756,0.565 -2.305314,0.9536 l -1.991923,0.7064 0.125624,-0.6014 z"
       id="path4147"
       inkscape:connector-curvature="0" />
  </g>
</svg>
