<?xml version="1.0" encoding="UTF-8" standalone="no"?>
<!-- Created with Inkscape (http://www.inkscape.org/) -->

<svg
   xmlns:dc="http://purl.org/dc/elements/1.1/"
   xmlns:cc="http://creativecommons.org/ns#"
   xmlns:rdf="http://www.w3.org/1999/02/22-rdf-syntax-ns#"
   xmlns:svg="http://www.w3.org/2000/svg"
   xmlns="http://www.w3.org/2000/svg"
   xmlns:sodipodi="http://sodipodi.sourceforge.net/DTD/sodipodi-0.dtd"
   xmlns:inkscape="http://www.inkscape.org/namespaces/inkscape"
   width="100"
   height="100"
   viewBox="0 0 99.999994 100"
   id="svg2"
   version="1.1"
   inkscape:version="0.91 r13725"
   sodipodi:docname="leaf.svg">
  <defs
     id="defs4" />
  <sodipodi:namedview
     id="base"
     pagecolor="#ffffff"
     bordercolor="#666666"
     borderopacity="1.0"
     inkscape:pageopacity="0.0"
     inkscape:pageshadow="2"
     inkscape:zoom="6.6548353"
     inkscape:cx="48.369831"
     inkscape:cy="50.754259"
     inkscape:document-units="px"
     inkscape:current-layer="layer1"
     showgrid="false"
     units="px"
     inkscape:window-width="1280"
     inkscape:window-height="1002"
     inkscape:window-x="-8"
     inkscape:window-y="-8"
     inkscape:window-maximized="1" />
  <metadata
     id="metadata7">
    <rdf:RDF>
      <cc:Work
         rdf:about="">
        <dc:format>image/svg+xml</dc:format>
        <dc:type
           rdf:resource="http://purl.org/dc/dcmitype/StillImage" />
        <dc:title></dc:title>
      </cc:Work>
    </rdf:RDF>
  </metadata>
  <g
     inkscape:label="Calque 1"
     inkscape:groupmode="layer"
     id="layer1"
     transform="translate(0,-952.3622)">
    <rect
       style="color:#000000;clip-rule:nonzero;display:inline;overflow:visible;visibility:visible;opacity:1;isolation:auto;mix-blend-mode:normal;color-interpolation:sRGB;color-interpolation-filters:linearRGB;solid-color:#000000;solid-opacity:1;fill:#9fb935;fill-opacity:1;fill-rule:nonzero;stroke:#9fb935;stroke-width:3;stroke-linecap:butt;stroke-linejoin:miter;stroke-miterlimit:10;stroke-dasharray:none;stroke-dashoffset:0;stroke-opacity:1;color-rendering:auto;image-rendering:auto;shape-rendering:auto;text-rendering:auto;enable-background:accumulate"
       id="rect4134"
       width="93.165344"
       height="94.517738"
       x="3.4173241"
       y="955.10333"
       ry="6.9122672" />
    <g
       id="g4210"
       transform="matrix(0.8426066,0,0,0.8426066,11.0243,157.76518)"
       style="fill:#ffffff;fill-opacity:1">
      <path
         inkscape:connector-curvature="0"
         id="path4173"
         d="m 14.950114,1012.9454 c -5.8512331,-4.3074 -9.2578965,-11.2836 -8.0848624,-16.55618 0.9055013,-4.07002 4.0255764,-7.09065 8.0745654,-7.81716 3.303642,-0.59278 6.344341,0.39627 8.759844,2.84931 2.209483,2.24382 3.031796,4.48649 2.886089,7.87121 -0.132556,3.07912 -1.241264,5.91812 -3.469884,8.88482 -1.25914,1.6762 -3.579547,3.97 -4.949485,4.8925 -1.295471,0.8724 -1.893428,0.8493 -3.216267,-0.1241 z m 3.291132,-12.4162 c 0.824647,-0.62899 1.233325,-1.73097 0.98456,-2.65478 -0.341087,-1.26668 -1.3828,-2.11859 -2.590671,-2.11859 -0.769817,0 -1.863482,0.6089 -2.259112,1.25773 -0.423912,0.69524 -0.440306,1.90333 -0.03675,2.70771 0.683954,1.36323 2.642314,1.76873 3.901962,0.80793 z"
         style="fill:#ffffff;fill-opacity:1" />
      <path
         sodipodi:nodetypes="ccscccssssscccccccccsccscccssssscccccccsccc"
         inkscape:connector-curvature="0"
         id="path4208"
         d="m 48.595372,1040.1738 c -18.678224,-3.1589 -34.0756,-5.7514 -34.21639,-5.7611 -0.140791,-0.012 -0.255983,-3.8574 -0.255983,-8.5504 l 0,-8.5327 2.55983,0 2.55983,0 0,6.3142 c 0,3.4729 0.08404,6.3144 0.18676,6.3144 0.10272,0 13.068357,2.1501 28.812529,4.7783 15.744174,2.6281 28.868853,4.7783 29.165955,4.7783 0.483448,0 0.540181,-1.3952 0.540181,-13.2851 l 0,-13.2852 2.731287,-0.1109 2.731288,-0.1109 -6.83e-4,16.639 c -6.83e-4,13.1051 -0.09141,16.6301 -0.42744,16.5976 -0.234652,-0.022 -15.708823,-2.6258 -34.387044,-5.7847 z m 30.724347,-32.7637 c -0.725216,-0.1623 -1.689402,-0.8032 -2.474501,-1.6449 -1.199567,-1.2859 -1.286309,-1.521 -1.286309,-3.4849 0,-2.0316 0.05273,-2.1587 1.490989,-3.59713 1.49833,-1.49825 2.109607,-1.70419 4.481947,-1.51005 2.494333,0.2041 4.345148,2.38655 4.345148,5.12358 0,3.5709 -2.999052,5.9096 -6.557274,5.1134 z m 1.273523,-15.60782 -2.645158,-0.10028 0,-13.29675 c 0,-11.90052 -0.05672,-13.29674 -0.540181,-13.29674 -0.297102,0 -13.421781,2.15019 -29.165955,4.7783 -15.744172,2.62811 -28.70981,4.77843 -28.812529,4.77843 -0.10272,0 -0.18676,2.227 -0.18676,4.9489 l 0,4.94901 -2.55983,0 -2.55983,0 0,-7.15206 0,-7.15195 1.109259,-0.19997 c 5.692541,-1.02602 68.020756,-11.36409 68.090905,-11.2939 0.05085,0.0507 0.05257,7.52723 0.0039,16.6143 l -0.08862,16.52181 -2.645157,-0.0991 z"
         style="fill:#ffffff;fill-opacity:1" />
    </g>
  </g>
</svg>
