<?xml version="1.0" encoding="UTF-8" standalone="no"?>
<!-- Generator: Adobe Illustrator 19.0.0, SVG Export Plug-In . SVG Version: 6.00 Build 0)  -->

<svg
   xmlns:dc="http://purl.org/dc/elements/1.1/"
   xmlns:cc="http://creativecommons.org/ns#"
   xmlns:rdf="http://www.w3.org/1999/02/22-rdf-syntax-ns#"
   xmlns:svg="http://www.w3.org/2000/svg"
   xmlns="http://www.w3.org/2000/svg"
   xmlns:sodipodi="http://sodipodi.sourceforge.net/DTD/sodipodi-0.dtd"
   xmlns:inkscape="http://www.inkscape.org/namespaces/inkscape"
   version="1.1"
   id="Layer_1"
   x="0px"
   y="0px"
   viewBox="0 0 512 512"
   style="enable-background:new 0 0 512 512;"
   xml:space="preserve"
   width="512px"
   height="512px"
   inkscape:version="0.91 r13725"
   sodipodi:docname="calendar.svg"><metadata
     id="metadata49"><rdf:RDF><cc:Work
         rdf:about=""><dc:format>image/svg+xml</dc:format><dc:type
           rdf:resource="http://purl.org/dc/dcmitype/StillImage" /></cc:Work></rdf:RDF></metadata><defs
     id="defs47" /><sodipodi:namedview
     pagecolor="#ffffff"
     bordercolor="#666666"
     borderopacity="1"
     objecttolerance="10"
     gridtolerance="10"
     guidetolerance="10"
     inkscape:pageopacity="0"
     inkscape:pageshadow="2"
     inkscape:window-width="1280"
     inkscape:window-height="1002"
     id="namedview45"
     showgrid="false"
     inkscape:zoom="0.4609375"
     inkscape:cx="-65.084746"
     inkscape:cy="256"
     inkscape:window-x="-8"
     inkscape:window-y="-8"
     inkscape:window-maximized="1"
     inkscape:current-layer="Layer_1" /><g
     id="g3"
     style="fill:#00a699;fill-opacity:1"><g
       id="g5"
       style="fill:#00a699;fill-opacity:1"><path
         d="M506.311,186.596H5.689c-3.141,0-5.689,2.547-5.689,5.689v241.089c0,23.315,18.902,42.217,42.217,42.217h427.564    c23.316,0,42.218-18.902,42.218-42.217V192.284C512,189.143,509.453,186.596,506.311,186.596z M121.742,390.258H96.711    c-9.425,0-17.067-7.641-17.067-17.067s7.641-17.067,17.067-17.067h25.031c9.425,0,17.067,7.641,17.067,17.067    S131.168,390.258,121.742,390.258z M121.742,306.062H96.711c-9.425,0-17.067-7.641-17.067-17.067s7.641-17.067,17.067-17.067    h25.031c9.425,0,17.067,7.641,17.067,17.067S131.168,306.062,121.742,306.062z M219.591,390.258H194.56    c-9.425,0-17.067-7.641-17.067-17.067s7.641-17.067,17.067-17.067h25.031c9.425,0,17.067,7.641,17.067,17.067    S229.016,390.258,219.591,390.258z M219.591,306.062H194.56c-9.425,0-17.067-7.641-17.067-17.067s7.641-17.067,17.067-17.067    h25.031c9.425,0,17.067,7.641,17.067,17.067S229.016,306.062,219.591,306.062z M317.44,390.258h-25.031    c-9.425,0-17.067-7.641-17.067-17.067s7.641-17.067,17.067-17.067h25.031c9.425,0,17.067,7.641,17.067,17.067    S326.865,390.258,317.44,390.258z M317.44,306.062h-25.031c-9.425,0-17.067-7.641-17.067-17.067s7.641-17.067,17.067-17.067    h25.031c9.425,0,17.067,7.641,17.067,17.067S326.865,306.062,317.44,306.062z M415.289,390.258h-25.031    c-9.425,0-17.067-7.641-17.067-17.067s7.641-17.067,17.067-17.067h25.031c9.425,0,17.067,7.641,17.067,17.067    S424.714,390.258,415.289,390.258z M415.289,306.062h-25.031c-9.425,0-17.067-7.641-17.067-17.067s7.641-17.067,17.067-17.067    h25.031c9.425,0,17.067,7.641,17.067,17.067S424.714,306.062,415.289,306.062z"
         fill="#FFFFFF"
         id="path7"
         style="fill:#00a699;fill-opacity:1" /></g></g><g
     id="g9"
     style="fill:#00a699;fill-opacity:1"><g
       id="g11"
       style="fill:#00a699;fill-opacity:1"><path
         d="M469.783,64.853h-59.045V53.476c0-9.425-7.641-17.067-17.067-17.067s-17.067,7.641-17.067,17.067v11.378H135.396V53.476    c0-9.425-7.641-17.067-17.067-17.067c-9.425,0-17.067,7.641-17.067,17.067v11.378H42.217C18.902,64.853,0,83.755,0,107.071v45.392    h506.311c3.141,0,5.689-2.547,5.689-5.689v-39.703C512,83.755,493.098,64.853,469.783,64.853z"
         fill="#FFFFFF"
         id="path13"
         style="fill:#00a699;fill-opacity:1" /></g></g><g
     id="g15" /><g
     id="g17" /><g
     id="g19" /><g
     id="g21" /><g
     id="g23" /><g
     id="g25" /><g
     id="g27" /><g
     id="g29" /><g
     id="g31" /><g
     id="g33" /><g
     id="g35" /><g
     id="g37" /><g
     id="g39" /><g
     id="g41" /><g
     id="g43" /></svg>