<?xml version="1.0" encoding="UTF-8" standalone="no"?>
<!-- Generator: Adobe Illustrator 19.0.0, SVG Export Plug-In . SVG Version: 6.00 Build 0)  -->

<svg
   xmlns:dc="http://purl.org/dc/elements/1.1/"
   xmlns:cc="http://creativecommons.org/ns#"
   xmlns:rdf="http://www.w3.org/1999/02/22-rdf-syntax-ns#"
   xmlns:svg="http://www.w3.org/2000/svg"
   xmlns="http://www.w3.org/2000/svg"
   xmlns:sodipodi="http://sodipodi.sourceforge.net/DTD/sodipodi-0.dtd"
   xmlns:inkscape="http://www.inkscape.org/namespaces/inkscape"
   version="1.1"
   id="Layer_1"
   x="0px"
   y="0px"
   viewBox="0 0 512 512"
   style="enable-background:new 0 0 512 512;"
   xml:space="preserve"
   width="512px"
   height="512px"
   inkscape:version="0.91 r13725"
   sodipodi:docname="placeholder.svg"><metadata
     id="metadata43"><rdf:RDF><cc:Work
         rdf:about=""><dc:format>image/svg+xml</dc:format><dc:type
           rdf:resource="http://purl.org/dc/dcmitype/StillImage" /></cc:Work></rdf:RDF></metadata><defs
     id="defs41" /><sodipodi:namedview
     pagecolor="#ffffff"
     bordercolor="#666666"
     borderopacity="1"
     objecttolerance="10"
     gridtolerance="10"
     guidetolerance="10"
     inkscape:pageopacity="0"
     inkscape:pageshadow="2"
     inkscape:window-width="1366"
     inkscape:window-height="706"
     id="namedview39"
     showgrid="false"
     inkscape:zoom="0.4609375"
     inkscape:cx="-65.084746"
     inkscape:cy="256"
     inkscape:window-x="1272"
     inkscape:window-y="-8"
     inkscape:window-maximized="1"
     inkscape:current-layer="Layer_1" /><g
     id="g3"
     style="fill:#00a699;fill-opacity:1"><g
       id="g5"
       style="fill:#00a699;fill-opacity:1"><path
         d="M255.998,0C146.45,0,57.325,89.139,57.325,198.704c0,77.385,32.292,155.541,93.387,226.019    c45.458,52.44,90.65,82.241,92.551,83.485c3.869,2.527,8.302,3.792,12.735,3.792c4.431,0,8.867-1.264,12.733-3.792    c0.982-0.642,24.407-16.05,54.309-43.905c35.15-32.745,64.002-68.2,85.754-105.384c30.445-52.042,45.881-105.947,45.881-160.216    C454.677,89.139,365.549,0,255.998,0z M256.001,268.494c-38.498,0-69.818-31.32-69.818-69.817    c0-38.498,31.322-69.818,69.818-69.818c38.496,0,69.818,31.32,69.818,69.818S294.497,268.494,256.001,268.494z"
         fill="#FFFFFF"
         id="path7"
         style="fill:#00a699;fill-opacity:1" /></g></g><g
     id="g9" /><g
     id="g11" /><g
     id="g13" /><g
     id="g15" /><g
     id="g17" /><g
     id="g19" /><g
     id="g21" /><g
     id="g23" /><g
     id="g25" /><g
     id="g27" /><g
     id="g29" /><g
     id="g31" /><g
     id="g33" /><g
     id="g35" /><g
     id="g37" /></svg>