<?xml version="1.0" encoding="iso-8859-1"?>
<!-- Generator: Adobe Illustrator 19.0.0, SVG Export Plug-In . SVG Version: 6.00 Build 0)  -->
<svg xmlns="http://www.w3.org/2000/svg" xmlns:xlink="http://www.w3.org/1999/xlink" version="1.1" id="Layer_1" x="0px" y="0px" viewBox="0 0 512 512" style="enable-background:new 0 0 512 512;" xml:space="preserve" width="512px" height="512px">
<g>
	<g>
		<path d="M506.311,186.596H5.689c-3.141,0-5.689,2.547-5.689,5.689v241.089c0,23.315,18.902,42.217,42.217,42.217h427.564    c23.316,0,42.218-18.902,42.218-42.217V192.284C512,189.143,509.453,186.596,506.311,186.596z M121.742,390.258H96.711    c-9.425,0-17.067-7.641-17.067-17.067s7.641-17.067,17.067-17.067h25.031c9.425,0,17.067,7.641,17.067,17.067    S131.168,390.258,121.742,390.258z M121.742,306.062H96.711c-9.425,0-17.067-7.641-17.067-17.067s7.641-17.067,17.067-17.067    h25.031c9.425,0,17.067,7.641,17.067,17.067S131.168,306.062,121.742,306.062z M219.591,390.258H194.56    c-9.425,0-17.067-7.641-17.067-17.067s7.641-17.067,17.067-17.067h25.031c9.425,0,17.067,7.641,17.067,17.067    S229.016,390.258,219.591,390.258z M219.591,306.062H194.56c-9.425,0-17.067-7.641-17.067-17.067s7.641-17.067,17.067-17.067    h25.031c9.425,0,17.067,7.641,17.067,17.067S229.016,306.062,219.591,306.062z M317.44,390.258h-25.031    c-9.425,0-17.067-7.641-17.067-17.067s7.641-17.067,17.067-17.067h25.031c9.425,0,17.067,7.641,17.067,17.067    S326.865,390.258,317.44,390.258z M317.44,306.062h-25.031c-9.425,0-17.067-7.641-17.067-17.067s7.641-17.067,17.067-17.067    h25.031c9.425,0,17.067,7.641,17.067,17.067S326.865,306.062,317.44,306.062z M415.289,390.258h-25.031    c-9.425,0-17.067-7.641-17.067-17.067s7.641-17.067,17.067-17.067h25.031c9.425,0,17.067,7.641,17.067,17.067    S424.714,390.258,415.289,390.258z M415.289,306.062h-25.031c-9.425,0-17.067-7.641-17.067-17.067s7.641-17.067,17.067-17.067    h25.031c9.425,0,17.067,7.641,17.067,17.067S424.714,306.062,415.289,306.062z" fill="#FFFFFF"/>
	</g>
</g>
<g>
	<g>
		<path d="M469.783,64.853h-59.045V53.476c0-9.425-7.641-17.067-17.067-17.067s-17.067,7.641-17.067,17.067v11.378H135.396V53.476    c0-9.425-7.641-17.067-17.067-17.067c-9.425,0-17.067,7.641-17.067,17.067v11.378H42.217C18.902,64.853,0,83.755,0,107.071v45.392    h506.311c3.141,0,5.689-2.547,5.689-5.689v-39.703C512,83.755,493.098,64.853,469.783,64.853z" fill="#FFFFFF"/>
	</g>
</g>
<g>
</g>
<g>
</g>
<g>
</g>
<g>
</g>
<g>
</g>
<g>
</g>
<g>
</g>
<g>
</g>
<g>
</g>
<g>
</g>
<g>
</g>
<g>
</g>
<g>
</g>
<g>
</g>
<g>
</g>
</svg>
