<?xml version="1.0" encoding="iso-8859-1"?>
<!-- Generator: Adobe Illustrator 19.0.0, SVG Export Plug-In . SVG Version: 6.00 Build 0)  -->
<svg xmlns="http://www.w3.org/2000/svg" xmlns:xlink="http://www.w3.org/1999/xlink" version="1.1" id="Layer_1" x="0px" y="0px" viewBox="0 0 512 512" style="enable-background:new 0 0 512 512;" xml:space="preserve" width="512px" height="512px">
<g>
	<g>
		<path d="M255.998,0C146.45,0,57.325,89.139,57.325,198.704c0,77.385,32.292,155.541,93.387,226.019    c45.458,52.44,90.65,82.241,92.551,83.485c3.869,2.527,8.302,3.792,12.735,3.792c4.431,0,8.867-1.264,12.733-3.792    c0.982-0.642,24.407-16.05,54.309-43.905c35.15-32.745,64.002-68.2,85.754-105.384c30.445-52.042,45.881-105.947,45.881-160.216    C454.677,89.139,365.549,0,255.998,0z M256.001,268.494c-38.498,0-69.818-31.32-69.818-69.817    c0-38.498,31.322-69.818,69.818-69.818c38.496,0,69.818,31.32,69.818,69.818S294.497,268.494,256.001,268.494z" fill="#FFFFFF"/>
	</g>
</g>
<g>
</g>
<g>
</g>
<g>
</g>
<g>
</g>
<g>
</g>
<g>
</g>
<g>
</g>
<g>
</g>
<g>
</g>
<g>
</g>
<g>
</g>
<g>
</g>
<g>
</g>
<g>
</g>
<g>
</g>
</svg>
