<?xml version="1.0" encoding="UTF-8" standalone="no"?>
<!-- Generator: Adobe Illustrator 18.0.0, SVG Export Plug-In . SVG Version: 6.00 Build 0)  -->

<svg
   xmlns:dc="http://purl.org/dc/elements/1.1/"
   xmlns:cc="http://creativecommons.org/ns#"
   xmlns:rdf="http://www.w3.org/1999/02/22-rdf-syntax-ns#"
   xmlns:svg="http://www.w3.org/2000/svg"
   xmlns="http://www.w3.org/2000/svg"
   xmlns:sodipodi="http://sodipodi.sourceforge.net/DTD/sodipodi-0.dtd"
   xmlns:inkscape="http://www.inkscape.org/namespaces/inkscape"
   version="1.1"
   id="Capa_1"
   x="0px"
   y="0px"
   viewBox="0 0 303.454 303.454"
   style="enable-background:new 0 0 303.454 303.454;"
   xml:space="preserve"
   inkscape:version="0.91 r13725"
   sodipodi:docname="clapperboard.svg"><metadata
     id="metadata51"><rdf:RDF><cc:Work
         rdf:about=""><dc:format>image/svg+xml</dc:format><dc:type
           rdf:resource="http://purl.org/dc/dcmitype/StillImage" /><dc:title /></cc:Work></rdf:RDF></metadata><defs
     id="defs49" /><sodipodi:namedview
     pagecolor="#ffffff"
     bordercolor="#666666"
     borderopacity="1"
     objecttolerance="10"
     gridtolerance="10"
     guidetolerance="10"
     inkscape:pageopacity="0"
     inkscape:pageshadow="2"
     inkscape:window-width="1280"
     inkscape:window-height="1002"
     id="namedview47"
     showgrid="false"
     inkscape:zoom="0.77771258"
     inkscape:cx="-6.888391"
     inkscape:cy="175.87437"
     inkscape:window-x="-8"
     inkscape:window-y="-8"
     inkscape:window-maximized="1"
     inkscape:current-layer="text4235" /><g
     id="g17" /><g
     id="g19" /><g
     id="g21" /><g
     id="g23" /><g
     id="g25" /><g
     id="g27" /><g
     id="g29" /><g
     id="g31" /><g
     id="g33" /><g
     id="g35" /><g
     id="g37" /><g
     id="g39" /><g
     id="g41" /><g
     id="g43" /><g
     id="g45" /><g
     id="g4221"><rect
       ry="0"
       y="152.06996"
       x="267.5401"
       height="32.277077"
       width="35.913933"
       id="rect4185-6"
       style="opacity:1;fill:#eec126;fill-opacity:1;stroke:none;stroke-width:0.80000001;stroke-linecap:round;stroke-linejoin:round;stroke-miterlimit:4;stroke-dasharray:none;stroke-dashoffset:0;stroke-opacity:1" /><rect
       ry="11.365169"
       y="106.15467"
       x="5.686595"
       height="65.463371"
       width="297.76743"
       id="rect4185"
       style="opacity:1;fill:#eec126;fill-opacity:1;stroke:none;stroke-width:0.80000001;stroke-linecap:round;stroke-linejoin:round;stroke-miterlimit:4;stroke-dasharray:none;stroke-dashoffset:0;stroke-opacity:1" /><g
       transform="translate(0,2.4146677)"
       id="g4202"><polygon
         id="polygon5"
         points="303.454,140.486 303.454,103.74 266.708,103.74 "
         transform="translate(1.0009766e-5,0)" /><path
         inkscape:connector-curvature="0"
         id="path7"
         d="m 210.13801,103.74 -47.93,0 60.812,60.812 -56.57,0 -60.812,-60.812 -50.93,0 60.812,60.812 -56.57,0 -52.521,-52.521 c -0.624,1.539 -0.975,3.218 -0.975,4.981 l 0,165.134 c 0,9.205 7.462,16.667 16.667,16.667 l 264.666,0 c 9.205,0 16.667,-7.462 16.667,-16.667 l 0,-117.594 -32.504,0 -60.812,-60.812 z" /></g></g><g
     id="g4228"><rect
       rx="0"
       transform="matrix(0.98980915,-0.14240028,0.14238981,0.98981066,0,0)"
       ry="12.611659"
       y="40.757896"
       x="-5.9637856"
       height="60.924877"
       width="296.42975"
       id="rect4185-5"
       style="opacity:1;fill:#eec126;fill-opacity:1;stroke:none;stroke-width:0.80000001;stroke-linecap:round;stroke-linejoin:round;stroke-miterlimit:4;stroke-dasharray:none;stroke-dashoffset:0;stroke-opacity:1" /><polygon
       points="253.32,4.641 202.915,11.944 151.45,80.846 201.856,73.544 "
       id="polygon9" /><polygon
       points="146.93,20.055 99.495,26.927 48.03,95.83 95.466,88.957 "
       id="polygon11" /><path
       d="m 300.42761,46.372606 -4.477,-30.902 -37.657,50.417 30.902,-4.477 c 7.254,-1.051 12.283,-7.783 11.232,-15.038 z"
       id="path13"
       inkscape:connector-curvature="0" /><path
       d="m 44.87382,34.583393 -32.14,4.656 c -7.2529997,1.051 -12.28199973,7.784 -11.2309997,15.038 l 4.086,28.204 0.57,3.936 13.2979997,-17.804 25.417,-34.03 z"
       id="path15"
       inkscape:connector-curvature="0" /></g><g
     id="text4235"
     style="font-style:normal;font-weight:normal;font-size:74.70610809px;line-height:125%;font-family:sans-serif;letter-spacing:0px;word-spacing:0px;fill:#ffffff;fill-opacity:1;stroke:none;stroke-width:1px;stroke-linecap:butt;stroke-linejoin:miter;stroke-opacity:1"><path
       inkscape:connector-curvature="0"
       id="path4163"
       style="font-style:normal;font-variant:normal;font-weight:500;font-stretch:normal;font-family:'Brandon Grotesque';-inkscape-font-specification:'Brandon Grotesque Medium';letter-spacing:3px;fill:#ffffff;fill-opacity:1"
       d="m 90.432991,248.53664 c 0,0.74706 0.597649,1.41941 1.419416,1.41941 l 18.078883,0 c 9.11414,0 16.28593,-6.05119 16.28593,-14.41827 0,-6.87297 -5.75237,-10.9071 -9.7118,-12.1771 3.51119,-1.64353 8.21767,-6.1259 8.21767,-11.87827 0,-7.84414 -6.87296,-13.82063 -15.76298,-13.82063 l -17.107703,0 c -0.821767,0 -1.419416,0.67235 -1.419416,1.41942 l 0,49.45544 z m 9.637089,-28.91127 0,-13.07356 7.99355,0 c 3.81001,0 6.42473,2.61471 6.42473,6.35002 0,3.7353 -2.61472,6.72354 -6.42473,6.72354 l -7.99355,0 z m 0,21.51536 0,-13.29768 8.14296,0 c 3.88472,0 7.62003,2.76412 7.62003,6.49943 0,3.88472 -2.98825,6.79825 -6.72355,6.79825 l -9.03944,0 z" /><path
       inkscape:connector-curvature="0"
       id="path4165"
       style="font-style:normal;font-variant:normal;font-weight:500;font-stretch:normal;font-family:'Brandon Grotesque';-inkscape-font-specification:'Brandon Grotesque Medium';letter-spacing:3px;fill:#ffffff;fill-opacity:1"
       d="m 134.61007,248.53664 c 0,0.74706 0.67235,1.41941 1.41941,1.41941 l 31.89951,0 c 0.82177,0 1.41942,-0.67235 1.41942,-1.41941 l 0,-6.20061 c 0,-0.74706 -0.59765,-1.41941 -1.41942,-1.41941 l -19.05006,0 0,-0.14942 21.9636,-40.71483 0,-0.97117 c 0,-0.74707 -0.67236,-1.41942 -1.41942,-1.41942 l -31.22715,0 c -0.74706,0 -1.41942,0.67235 -1.41942,1.41942 l 0,6.2006 c 0,0.74706 0.67236,1.41942 1.41942,1.41942 l 18.67653,0 0,0.29882 -22.26242,40.19189 0,1.34471 z" /><path
       inkscape:connector-curvature="0"
       id="path4167"
       style="font-style:normal;font-variant:normal;font-weight:500;font-stretch:normal;font-family:'Brandon Grotesque';-inkscape-font-specification:'Brandon Grotesque Medium';letter-spacing:3px;fill:#ffffff;fill-opacity:1"
       d="m 182.66602,248.53664 c 0,0.74706 0.67236,1.41941 1.41942,1.41941 l 6.94767,0 c 0.82176,0 1.41941,-0.67235 1.41941,-1.41941 l 0,-20.61889 24.35419,0 0,20.61889 c 0,0.74706 0.59765,1.41941 1.41942,1.41941 l 6.87296,0 c 0.74706,0 1.41942,-0.67235 1.41942,-1.41941 l 0,-49.45544 c 0,-0.74707 -0.67236,-1.41942 -1.41942,-1.41942 l -6.87296,0 c -0.82177,0 -1.41942,0.67235 -1.41942,1.41942 l 0,19.79711 -24.35419,0 0,-19.79711 c 0,-0.74707 -0.59765,-1.41942 -1.41941,-1.41942 l -6.94767,0 c -0.74706,0 -1.41942,0.67235 -1.41942,1.41942 l 0,49.45544 z" /></g></svg>