<?xml version="1.0" encoding="UTF-8" standalone="no"?>
<!-- Created with Inkscape (http://www.inkscape.org/) -->

<svg
   xmlns:dc="http://purl.org/dc/elements/1.1/"
   xmlns:cc="http://creativecommons.org/ns#"
   xmlns:rdf="http://www.w3.org/1999/02/22-rdf-syntax-ns#"
   xmlns:svg="http://www.w3.org/2000/svg"
   xmlns="http://www.w3.org/2000/svg"
   xmlns:sodipodi="http://sodipodi.sourceforge.net/DTD/sodipodi-0.dtd"
   xmlns:inkscape="http://www.inkscape.org/namespaces/inkscape"
   width="438.858"
   height="409.32401"
   viewBox="0 0 438.858 409.324"
   id="svg4302"
   version="1.1"
   inkscape:version="0.91 r13725"
   sodipodi:docname="splash_cinema.svg">
  <defs
     id="defs4304" />
  <sodipodi:namedview
     id="base"
     pagecolor="#ffffff"
     bordercolor="#666666"
     borderopacity="1.0"
     inkscape:pageopacity="0.0"
     inkscape:pageshadow="2"
     inkscape:zoom="0.74571937"
     inkscape:cx="286.41459"
     inkscape:cy="173.01263"
     inkscape:document-units="px"
     inkscape:current-layer="layer1"
     showgrid="false"
     showborder="true"
     inkscape:window-width="1366"
     inkscape:window-height="706"
     inkscape:window-x="1272"
     inkscape:window-y="-8"
     inkscape:window-maximized="1" />
  <metadata
     id="metadata4307">
    <rdf:RDF>
      <cc:Work
         rdf:about="">
        <dc:format>image/svg+xml</dc:format>
        <dc:type
           rdf:resource="http://purl.org/dc/dcmitype/StillImage" />
        <dc:title></dc:title>
      </cc:Work>
    </rdf:RDF>
  </metadata>
  <g
     inkscape:label="Calque 1"
     inkscape:groupmode="layer"
     id="layer1"
     transform="translate(0,-643.0382)">
    <g
       style="display:inline"
       id="g8402"
       transform="matrix(0.70707071,0,0,0.70707071,-148.22864,359.62843)">
      <path
         inkscape:connector-curvature="0"
         id="path4147"
         d="M 647.59737,977.23408 C 583.43565,962.58007 533.83055,912.80862 518.58249,847.78654 c -12.26507,-52.30186 -22.74853,-73.4735 -48.29282,-97.52883 -28.09844,-26.4606 -56.7326,-37.80305 -95.30654,-37.75239 -37.72304,0.0497 -65.02838,10.73238 -89.47765,35.00693 -16.47299,16.3553 -25.92466,32.4063 -31.35166,53.24195 -12.96489,49.77552 9.41025,101.09493 52.82527,121.15971 13.08949,6.04946 17.47059,6.81403 38.91267,6.79094 21.46932,-0.0244 25.50906,-0.74043 36.24371,-6.43591 26.18243,-13.89157 39.74196,-35.56686 39.79234,-63.60928 0.0244,-14.34239 -1.0532,-18.80305 -7.09728,-29.34114 -9.70671,-16.92416 -21.13892,-23.73089 -39.93808,-23.77913 -16.35103,-0.0419 -25.55529,4.90528 -30.41886,16.34995 -3.7029,8.71349 -1.75153,10.38014 6.11706,5.22445 12.5373,-8.21478 32.76825,5.89839 32.7439,22.84225 -0.0244,17.09422 -22.13908,33.53671 -41.59571,30.92705 -23.2033,-3.11224 -39.44291,-24.40288 -39.06732,-51.21839 0.2505,-17.88548 4.88311,-29.14561 17.72082,-43.07287 14.18569,-15.38968 30.35669,-21.90308 54.49437,-21.94936 25.3867,-0.049 44.05103,8.01759 61.67835,26.65585 17.56676,18.57428 24.80205,35.71352 26.06908,61.75352 5.2838,108.59227 -130.49808,158.93196 -211.18769,78.29558 -36.78705,-36.7628 -50.94122,-93.60695 -35.84776,-143.96709 28.53795,-95.2184 129.88465,-140.53414 229.35924,-102.55473 48.86618,18.65711 108.92033,5.02866 146.71543,-33.29503 51.72565,-52.44904 53.33626,-129.83328 3.69434,-177.50191 -25.17648,-24.17572 -50.05239,-33.69613 -82.27407,-31.48759 -70.12981,4.80679 -111.27521,85.2075 -68.48366,133.82128 22.75235,25.84801 58.39544,30.06904 80.91778,9.58269 13.76711,-12.52256 16.71877,-32.65815 6.49147,-44.28324 l -5.96427,-6.7794 -0.0763,7.52693 c -0.17317,17.08165 -18.11553,26.95518 -34.69034,19.08992 -19.71208,-9.35399 -21.34866,-40.24313 -2.98644,-56.36539 21.70454,-19.05682 53.77438,-14.99309 74.71139,9.46706 30.46978,35.59709 14.97276,93.2366 -31.17594,115.95554 -48.07163,23.66559 -109.21081,0.0437 -134.10505,-51.81287 -38.82828,-80.88231 28.35372,-177.6253 123.55509,-177.92103 31.97798,-0.0994 73.85242,17.10328 99.69234,40.955 59.04102,54.49823 68.02172,143.32301 21.42788,211.93549 -5.26125,7.7475 -21.41861,26.04155 -35.90525,40.65344 -38.71111,39.04567 -52.50945,68.2497 -52.50945,111.13571 0,73.38317 56.81929,134.20755 125.24477,134.07311 42.65101,-0.084 83.62731,-25.24808 101.01027,-62.03214 7.05666,-14.9326 7.78355,-18.6065 7.7996,-39.42161 0.0175,-20.76763 -0.70166,-24.45056 -7.53354,-38.65997 -13.89663,-28.90316 -37.35356,-46.10566 -65.31971,-47.9033 -21.06492,-1.35407 -37.49943,4.59915 -51.49166,18.65225 -16.69228,16.76483 -21.0139,35.8586 -12.40589,54.81155 7.60512,16.74479 25.17101,26.40819 36.74475,20.21414 5.33853,-2.85714 5.32858,-2.88797 -1.91293,-5.9328 -8.15788,-3.43012 -10.41884,-7.59136 -10.41884,-19.17552 0,-10.49878 7.75031,-19.89871 19.24662,-23.34308 8.16698,-2.4469 10.69427,-2.12891 20.39162,2.56548 13.98263,6.7689 21.2301,16.86807 22.6408,31.54951 1.4549,15.14163 -2.53642,26.42201 -13.2533,37.45679 -12.02378,12.38049 -25.36706,17.97525 -42.98512,18.02335 -19.90017,0.0543 -30.3606,-3.32352 -44.22157,-14.27996 -14.19055,-11.217 -23.32023,-26.01444 -28.48243,-46.16448 -17.34122,-67.6894 55.20804,-131.18147 128.17729,-112.17538 31.27513,8.14612 61.21259,31.84552 76.8691,60.85185 8.33974,15.45073 16.27038,45.81588 16.21494,62.08389 -0.1253,36.68696 -14.17523,69.01421 -42.1388,96.95574 -20.67479,20.65844 -39.21641,32.1176 -65.08496,40.22402 -19.56288,6.13043 -56.2105,7.76091 -75.48647,3.35844 z"
         style="fill:#eec126;fill-opacity:1" />
      <path
         inkscape:connector-curvature="0"
         id="path8400"
         d="m 602.28234,683.61791 55.31164,-28.0948 0,98.33181 -28.97276,-13.16944 -28.97277,-15.80333 z"
         style="fill:#ffffff;fill-opacity:1;fill-rule:evenodd;stroke:#000000;stroke-width:1px;stroke-linecap:butt;stroke-linejoin:miter;stroke-opacity:1" />
      <rect
         y="674.39838"
         x="512.03558"
         height="31.749216"
         width="15.874608"
         id="rect8344"
         style="opacity:1;fill:#eec126;fill-opacity:1;stroke:none;stroke-width:0.80000001;stroke-linecap:round;stroke-linejoin:round;stroke-miterlimit:4;stroke-dasharray:none;stroke-dashoffset:0;stroke-opacity:1" />
      <g
         transform="matrix(1.4205924,0,0,1.4205924,-185.44603,-409.73699)"
         id="g8319">
        <circle
           style="display:inline;opacity:1;fill:#ffffff;fill-opacity:1;stroke:none;stroke-width:0.80000001;stroke-linecap:round;stroke-linejoin:round;stroke-miterlimit:4;stroke-dasharray:none;stroke-dashoffset:0;stroke-opacity:1"
           id="path8251-7"
           cx="446.05435"
           cy="716.19177"
           r="27.626194" />
        <circle
           style="display:inline;opacity:1;fill:#eec126;fill-opacity:1;stroke:none;stroke-width:0.80000001;stroke-linecap:round;stroke-linejoin:round;stroke-miterlimit:4;stroke-dasharray:none;stroke-dashoffset:0;stroke-opacity:1"
           id="path8251-6-3"
           cx="445.12314"
           cy="717.12305"
           r="13.347489" />
        <circle
           style="opacity:1;fill:#ffffff;fill-opacity:1;stroke:none;stroke-width:0.80000001;stroke-linecap:round;stroke-linejoin:round;stroke-miterlimit:4;stroke-dasharray:none;stroke-dashoffset:0;stroke-opacity:1"
           id="path8251"
           cx="518.37915"
           cy="705.32751"
           r="37.869614" />
        <rect
           style="opacity:1;fill:#000000;fill-opacity:1;stroke:none;stroke-width:0.80000001;stroke-linecap:round;stroke-linejoin:round;stroke-miterlimit:4;stroke-dasharray:none;stroke-dashoffset:0;stroke-opacity:1"
           id="rect8249"
           width="142.68777"
           height="76.541122"
           x="413.35349"
           y="747.80164" />
        <g
           id="g3"
           transform="matrix(0.44799638,0,0,0.44799638,381.87969,659.64365)">
          <g
             id="g5">
            <path
               d="m 481.086,188.037 c -3.454,-2.062 -7.737,-2.159 -11.278,-0.253 l -73.901,39.777 0,-34.087 c 0,-6.312 -5.118,-11.429 -11.428,-11.429 l -18.586,0 c 23.179,-18.799 38.024,-47.493 38.024,-79.594 C 403.918,45.96 357.958,0 301.465,0 253.247,0 212.708,33.487 201.867,78.424 187.685,61.312 166.28,50.392 142.37,50.392 c -42.6,0 -77.256,34.657 -77.256,77.256 0,21.199 8.586,40.426 22.459,54.4 l -10.435,0 c -6.312,0 -11.429,5.117 -11.429,11.429 l 0,51.879 -28.933,0 c -6.312,0 -11.429,5.117 -11.429,11.429 l 0,44.944 c 0,6.312 5.117,11.429 11.429,11.429 l 28.932,0 0,51.879 c 0,6.312 5.117,11.429 11.429,11.429 l 134.825,0 -61.946,118.825 c -2.918,5.596 -0.746,12.499 4.851,15.417 1.688,0.88 3.494,1.297 5.273,1.297 4.123,0 8.105,-2.239 10.143,-6.147 L 230.806,389.76 291.33,505.858 c 2.038,3.91 6.021,6.147 10.144,6.147 1.779,0 3.586,-0.417 5.273,-1.297 5.597,-2.918 7.769,-9.821 4.85,-15.417 l -61.946,-118.825 134.827,0 c 6.311,0 11.429,-5.117 11.429,-11.429 l 0,-34.088 73.901,39.777 c 1.694,0.911 3.555,1.365 5.416,1.365 2.03,0 4.059,-0.541 5.862,-1.617 3.454,-2.063 5.567,-5.789 5.567,-9.811 l 0,-162.815 c 0,-4.023 -2.113,-7.748 -5.567,-9.811 z m -415.377,102.26 -17.504,0 0,-22.087 17.504,0 0,22.087 z M 301.465,22.857 c 43.888,0 79.595,35.706 79.595,79.595 0,43.889 -35.706,79.594 -79.595,79.594 -43.888,0 -79.594,-35.706 -79.594,-79.594 0.001,-43.888 35.707,-79.595 79.594,-79.595 z m -87.273,133.197 c 6.104,9.904 13.847,18.693 22.847,25.992 l -39.872,0 c 7.309,-7.362 13.133,-16.191 17.025,-25.992 z M 142.37,73.248 c 29.995,0 54.399,24.403 54.399,54.399 0,29.996 -24.403,54.4 -54.399,54.4 -29.995,0 -54.399,-24.403 -54.399,-54.4 10e-4,-29.996 24.404,-54.399 54.399,-54.399 z m 230.68,173.443 0,65.123 0,41.79 -142.037,0 c -0.021,0 -0.041,0 -0.062,0 l -0.302,0 c -0.013,0 -0.026,0 -0.039,0 l -142.044,0 0,-51.879 0,-44.944 0,-51.879 284.484,0 0,41.789 z m 90.746,94.838 -67.889,-36.542 0,-51.468 67.889,-36.542 0,124.552 z"
               id="path7-5"
               inkscape:connector-curvature="0" />
          </g>
        </g>
        <g
           id="g9"
           transform="matrix(0.44799638,0,0,0.44799638,381.87969,659.64365)">
          <g
             id="g11">
            <path
               d="m 142.37,92.931 c -19.143,0 -34.716,15.574 -34.716,34.716 0,19.143 15.574,34.716 34.716,34.716 19.143,0 34.716,-15.574 34.716,-34.716 10e-4,-19.142 -15.573,-34.716 -34.716,-34.716 z m 0,48.86 c -7.8,0 -14.145,-6.345 -14.145,-14.145 0,-7.8 6.345,-14.145 14.145,-14.145 7.8,0 14.145,6.345 14.145,14.145 0,7.8 -6.346,14.145 -14.145,14.145 z"
               id="path13-1"
               inkscape:connector-curvature="0" />
          </g>
        </g>
        <circle
           style="display:inline;opacity:1;fill:#eec126;fill-opacity:1;stroke:none;stroke-width:0.80000001;stroke-linecap:round;stroke-linejoin:round;stroke-miterlimit:4;stroke-dasharray:none;stroke-dashoffset:0;stroke-opacity:1"
           id="path8251-6"
           cx="516.82709"
           cy="705.01715"
           r="19.555622" />
        <g
           id="g15"
           transform="matrix(0.44799638,0,0,0.44799638,381.87969,659.64365)">
          <g
             id="g17">
            <path
               d="m 301.465,52.595 c -27.491,0 -49.856,22.366 -49.856,49.857 0,27.49 22.365,49.856 49.856,49.856 27.491,0 49.856,-22.366 49.856,-49.856 0,-27.491 -22.364,-49.857 -49.856,-49.857 z m 0,76.856 c -14.887,0 -26.999,-12.112 -26.999,-26.999 0,-14.887 12.112,-27 26.999,-27 14.887,0 26.999,12.112 26.999,27 0,14.888 -12.112,26.999 -26.999,26.999 z"
               id="path19"
               inkscape:connector-curvature="0" />
          </g>
        </g>
        <g
           id="g21"
           transform="matrix(0.44799638,0,0,0.44799638,381.87969,659.64365)"
           style="fill:#ffffff;fill-opacity:1">
          <g
             id="g23"
             style="fill:#ffffff;fill-opacity:1">
            <path
               d="m 264.593,238.137 -124.26,0 c -5.997,0 -10.857,4.861 -10.857,10.857 l 0,60.519 c 0,5.997 4.861,10.857 10.857,10.857 l 124.26,0 c 5.997,0 10.857,-4.861 10.857,-10.857 l 0,-60.519 c 0,-5.995 -4.861,-10.857 -10.857,-10.857 z m -10.858,60.519 -102.545,0 0,-38.804 102.546,0 0,38.804 z"
               id="path25"
               inkscape:connector-curvature="0"
               style="fill:#ffffff;fill-opacity:1" />
          </g>
        </g>
        <g
           id="g27"
           transform="matrix(0.44799638,0,0,0.44799638,381.87969,659.64365)"
           style="fill:#ffffff;fill-opacity:1">
          <g
             id="g29"
             style="fill:#ffffff;fill-opacity:1">
            <circle
               cx="324.53601"
               cy="260.422"
               r="11.429"
               id="circle31"
               style="fill:#ffffff;fill-opacity:1" />
          </g>
        </g>
        <g
           id="g33"
           transform="matrix(0.44799638,0,0,0.44799638,381.87969,659.64365)"
           style="fill:#ffffff;fill-opacity:1">
          <g
             id="g35"
             style="fill:#ffffff;fill-opacity:1">
            <circle
               cx="324.53601"
               cy="298.07901"
               r="11.429"
               id="circle37"
               style="fill:#ffffff;fill-opacity:1" />
          </g>
        </g>
      </g>
    </g>
  </g>
</svg>
