<?xml version="1.0" encoding="UTF-8" standalone="no"?>
<!-- Generator: Adobe Illustrator 16.0.0, SVG Export Plug-In . SVG Version: 6.00 Build 0)  -->

<svg
   xmlns:dc="http://purl.org/dc/elements/1.1/"
   xmlns:cc="http://creativecommons.org/ns#"
   xmlns:rdf="http://www.w3.org/1999/02/22-rdf-syntax-ns#"
   xmlns:svg="http://www.w3.org/2000/svg"
   xmlns="http://www.w3.org/2000/svg"
   xmlns:sodipodi="http://sodipodi.sourceforge.net/DTD/sodipodi-0.dtd"
   xmlns:inkscape="http://www.inkscape.org/namespaces/inkscape"
   version="1.1"
   id="Capa_1"
   x="0px"
   y="0px"
   width="512px"
   height="512px"
   viewBox="0 0 481.08 481.08"
   style="enable-background:new 0 0 481.08 481.08;"
   xml:space="preserve"
   inkscape:version="0.91 r13725"
   sodipodi:docname="ticket.svg"><metadata
     id="metadata45"><rdf:RDF><cc:Work
         rdf:about=""><dc:format>image/svg+xml</dc:format><dc:type
           rdf:resource="http://purl.org/dc/dcmitype/StillImage" /><dc:title></dc:title></cc:Work></rdf:RDF></metadata><defs
     id="defs43" /><sodipodi:namedview
     pagecolor="#ffffff"
     bordercolor="#666666"
     borderopacity="1"
     objecttolerance="10"
     gridtolerance="10"
     guidetolerance="10"
     inkscape:pageopacity="0"
     inkscape:pageshadow="2"
     inkscape:window-width="1280"
     inkscape:window-height="1002"
     id="namedview41"
     showgrid="false"
     inkscape:zoom="0.4609375"
     inkscape:cx="256"
     inkscape:cy="429.55932"
     inkscape:window-x="-8"
     inkscape:window-y="-8"
     inkscape:window-maximized="1"
     inkscape:current-layer="Capa_1" /><path
     d="m 470.52,159.601 -35.977,-35.688 c -10.657,10.656 -23.604,15.988 -38.828,15.988 -15.229,0 -28.168,-5.332 -38.824,-15.988 -10.664,-10.66 -15.988,-23.601 -15.988,-38.83 0,-15.23 5.331,-28.171 15.988,-38.832 L 321.198,10.563 c -7.05,-7.04 -15.66,-10.562 -25.838,-10.562 -10.184,0 -18.794,3.523 -25.837,10.562 L 10.566,269.233 C 3.521,276.279 0,284.896 0,295.07 c 0,10.182 3.521,18.791 10.566,25.838 l 35.688,35.977 c 10.66,-10.656 23.604,-15.988 38.831,-15.988 15.226,0 28.167,5.325 38.826,15.988 10.657,10.657 15.987,23.6 15.987,38.828 0,15.228 -5.327,28.164 -15.987,38.828 l 35.976,35.974 c 7.044,7.043 15.658,10.564 25.841,10.564 10.184,0 18.798,-3.521 25.837,-10.564 L 470.52,211.275 c 7.043,-7.042 10.561,-15.653 10.561,-25.837 -0.001,-10.183 -3.519,-18.793 -10.561,-25.837 z m -77.375,57.1 -176.443,176.438 c -3.422,3.433 -7.705,5.144 -12.847,5.144 -5.137,0 -9.419,-1.711 -12.845,-5.144 L 87.653,289.793 c -3.617,-3.621 -5.424,-7.902 -5.424,-12.847 0,-4.949 1.807,-9.236 5.424,-12.854 L 264.095,87.651 c 3.429,-3.427 7.714,-5.142 12.854,-5.142 5.134,0 9.418,1.715 12.847,5.142 l 103.35,103.353 c 3.621,3.619 5.428,7.902 5.428,12.85 -0.002,4.947 -1.808,9.229 -5.429,12.847 z"
     id="path7"
     style="fill:#eec126;fill-opacity:1"
     inkscape:connector-curvature="0" /><path
     d="M 276.955,113.639 367.178,203.857 203.87,367.165 113.652,276.947 276.955,113.639 Z"
     id="path9"
     style="fill:#000000;fill-opacity:1"
     inkscape:connector-curvature="0" /><g
     id="g11" /><g
     id="g13" /><g
     id="g15" /><g
     id="g17" /><g
     id="g19" /><g
     id="g21" /><g
     id="g23" /><g
     id="g25" /><g
     id="g27" /><g
     id="g29" /><g
     id="g31" /><g
     id="g33" /><g
     id="g35" /><g
     id="g37" /><g
     id="g39" /></svg>