<?xml version="1.0" encoding="UTF-8" standalone="no"?>
<!-- Created with Inkscape (http://www.inkscape.org/) -->

<svg
   xmlns:dc="http://purl.org/dc/elements/1.1/"
   xmlns:cc="http://creativecommons.org/ns#"
   xmlns:rdf="http://www.w3.org/1999/02/22-rdf-syntax-ns#"
   xmlns:svg="http://www.w3.org/2000/svg"
   xmlns="http://www.w3.org/2000/svg"
   xmlns:sodipodi="http://sodipodi.sourceforge.net/DTD/sodipodi-0.dtd"
   xmlns:inkscape="http://www.inkscape.org/namespaces/inkscape"
   width="70"
   height="90"
   viewBox="0 0 70 90"
   id="svg2"
   version="1.1"
   inkscape:version="0.92.2 (5c3e80d, 2017-08-06)"
   sodipodi:docname="patrimoine_vert.svg">
  <defs
     id="defs4" />
  <sodipodi:namedview
     id="base"
     pagecolor="#ffffff"
     bordercolor="#666666"
     borderopacity="1.0"
     inkscape:pageopacity="0.0"
     inkscape:pageshadow="2"
     inkscape:zoom="3.6866667"
     inkscape:cx="-5.5063283"
     inkscape:cy="31.428571"
     inkscape:document-units="px"
     inkscape:current-layer="layer1"
     showgrid="false"
     units="px"
     inkscape:window-width="1920"
     inkscape:window-height="1017"
     inkscape:window-x="3832"
     inkscape:window-y="-8"
     inkscape:window-maximized="1" />
  <metadata
     id="metadata7">
    <rdf:RDF>
      <cc:Work
         rdf:about="">
        <dc:format>image/svg+xml</dc:format>
        <dc:type
           rdf:resource="http://purl.org/dc/dcmitype/StillImage" />
        <dc:title></dc:title>
      </cc:Work>
    </rdf:RDF>
  </metadata>
  <g
     inkscape:label="Calque 1"
     inkscape:groupmode="layer"
     id="layer1"
     transform="translate(0,-962.3622)">
    <path
       style="fill:#9fb935;fill-opacity:1"
       d="m 30.723305,1042.7392 -3.40507,-3.9844 -5.639865,3.0469 c -3.101925,1.6758 -5.880657,3.0468 -6.174959,3.0468 -0.870078,0 -0.609831,-4.2346 0.319767,-5.2031 1.306151,-1.3608 9.062364,-19.9871 12.788552,-30.7112 3.459129,-9.95564 5.021238,-12.49129 7.184075,-11.66133 0.706958,0.27129 3.314828,6.12803 5.795266,13.01503 2.480438,6.887 6.565822,17.1143 9.078628,22.7275 2.512807,5.6132 4.350121,10.5595 4.08292,10.9918 -0.2672,0.4324 -3.23534,-0.5697 -6.595865,-2.2269 l -6.110046,-3.013 -3.304447,3.9781 c -1.817446,2.188 -3.599071,3.9781 -3.959167,3.9781 -0.360096,0 -2.187001,-1.7929 -4.059789,-3.9843 z M 9.0707724,998.18295 c -4.072133,-2.51473 -4.351874,-5.62577 -0.791879,-8.80663 6.3096946,-5.63771 18.8228586,-1.42946 16.5975536,5.58186 -1.400794,4.41348 -10.781505,6.32742 -15.8056746,3.22477 z m 37.8444746,-0.76152 c -1.586437,-1.3349 -2.88443,-3.19583 -2.88443,-4.13541 0,-3.07666 5.284486,-6.5625 9.948665,-6.5625 6.673361,0 11.855628,4.48224 9.744028,8.4278 -2.672907,4.99438 -12.063406,6.26268 -16.808263,2.27011 z M 31.388022,986.18069 c -4.00769,-4.32437 -4.154704,-10.98166 -0.349341,-15.8194 2.677232,-3.40354 5.831291,-3.10848 8.228175,0.76976 2.842782,4.59972 2.637857,10.88287 -0.475627,14.58304 -2.958456,3.51593 -4.487856,3.61232 -7.403207,0.4666 z"
       id="path4147"
       inkscape:connector-curvature="0" />
  </g>
</svg>
