<?xml version="1.0" encoding="UTF-8" standalone="no"?>
<!-- Created with Inkscape (http://www.inkscape.org/) -->

<svg
   xmlns:dc="http://purl.org/dc/elements/1.1/"
   xmlns:cc="http://creativecommons.org/ns#"
   xmlns:rdf="http://www.w3.org/1999/02/22-rdf-syntax-ns#"
   xmlns:svg="http://www.w3.org/2000/svg"
   xmlns="http://www.w3.org/2000/svg"
   xmlns:sodipodi="http://sodipodi.sourceforge.net/DTD/sodipodi-0.dtd"
   xmlns:inkscape="http://www.inkscape.org/namespaces/inkscape"
   width="100"
   height="100"
   viewBox="0 0 100 100"
   id="svg2"
   version="1.1"
   inkscape:version="0.91 r13725"
   sodipodi:docname="patrimoine_highlight.svg">
  <defs
     id="defs4" />
  <sodipodi:namedview
     id="base"
     pagecolor="#ffffff"
     bordercolor="#666666"
     borderopacity="1.0"
     inkscape:pageopacity="0.0"
     inkscape:pageshadow="2"
     inkscape:zoom="3.3026902"
     inkscape:cx="23.94828"
     inkscape:cy="52.698517"
     inkscape:document-units="px"
     inkscape:current-layer="layer1"
     showgrid="false"
     units="px"
     inkscape:window-width="1280"
     inkscape:window-height="1002"
     inkscape:window-x="-8"
     inkscape:window-y="-8"
     inkscape:window-maximized="1" />
  <metadata
     id="metadata7">
    <rdf:RDF>
      <cc:Work
         rdf:about="">
        <dc:format>image/svg+xml</dc:format>
        <dc:type
           rdf:resource="http://purl.org/dc/dcmitype/StillImage" />
        <dc:title />
      </cc:Work>
    </rdf:RDF>
  </metadata>
  <g
     inkscape:label="Calque 1"
     inkscape:groupmode="layer"
     id="layer1"
     transform="translate(0,-952.36216)">
    <g
       id="g4145">
      <rect
         y="967.88556"
         x="19.680925"
         height="73.576385"
         width="62.978962"
         id="rect4134"
         style="opacity:1;fill:#ffffff;fill-opacity:1;stroke:none;stroke-width:1.79999995;stroke-linecap:round;stroke-linejoin:round;stroke-miterlimit:4;stroke-dasharray:none;stroke-dashoffset:0;stroke-opacity:1" />
      <path
         inkscape:connector-curvature="0"
         id="path4147"
         d="m 15.128027,1050.1764 c -7.1779661,-2.5473 -11.7126577,-8.0797 -13.2791389,-16.2013 -0.4837222,-2.5079 -0.6378216,-12.8299 -0.5086066,-34.06775 l 0.1853838,-30.46978 2.1074806,-4.13048 c 2.4653197,-4.8318 6.1035029,-7.93386 11.7416831,-10.01142 3.495583,-1.28805 4.508709,-1.33834 31.219403,-1.54974 16.562871,-0.13108 29.61837,0.0276 32.635559,0.39667 10.210306,1.24891 16.021882,6.47192 18.646508,16.75808 0.825639,3.23573 0.928981,7.8857 0.756086,34.02082 -0.181701,27.4676 -0.301288,30.5374 -1.290565,33.1294 -1.628168,4.2657 -5.982634,8.7573 -10.613686,10.9477 l -3.913894,1.8511 -32.515431,0.1345 c -28.203394,0.1166 -32.86757,0.012 -35.170782,-0.8078 z m 36.86571,-23.1239 c 0.932211,-1.3177 2.117166,-2.3957 2.633226,-2.3957 0.516065,0 2.525324,0.8724 4.465003,1.9389 5.038424,2.7698 5.375922,1.9809 2.134649,-4.99 -2.48633,-5.3473 -3.539985,-8.036 -8.361157,-21.3355 -1.542439,-4.25492 -2.234568,-5.45778 -3.221478,-5.59883 -0.691329,-0.0986 -1.546336,0.17219 -1.900011,0.60215 -0.353677,0.42999 -2.044446,4.84618 -3.757264,9.81378 -1.712818,4.9675 -4.494243,11.953 -6.180942,15.5229 -3.711182,7.8547 -3.459326,8.7259 1.712717,5.9247 1.907108,-1.0331 3.925266,-1.8781 4.484797,-1.8781 0.559532,0 1.734587,1.0838 2.611234,2.4085 0.876646,1.3247 2.064243,2.4027 2.6391,2.3958 0.574859,-0.012 1.807916,-1.091 2.740126,-2.4086 z M 40.303459,995.23619 c 0.794895,-0.56521 1.826256,-1.6014 2.291912,-2.3027 0.769776,-1.15939 0.675374,-1.47018 -1.039655,-3.42354 -2.965519,-3.37753 -7.841284,-3.67312 -11.079869,-0.67169 -5.000948,4.63474 4.03445,10.51697 9.827612,6.39793 z m 24.69758,1.13454 c 2.600933,-0.74595 4.867243,-2.8554 4.867243,-4.53041 0,-1.34242 -1.743077,-3.26562 -4.024849,-4.44079 -1.987354,-1.02357 -5.082168,-0.81077 -7.226806,0.49691 -4.163715,2.53877 -3.927453,5.83534 0.564345,7.87426 2.988683,1.35661 3.130853,1.37126 5.820067,0.60003 z m -12.9733,-9.66633 c 2.798504,-3.32584 2.787233,-8.09271 -0.02703,-11.43731 -1.802088,-2.14166 -3.168388,-2.26524 -4.833427,-0.43716 -1.872703,2.05604 -2.588757,3.76321 -2.588757,6.17189 0,2.40871 0.716054,4.11585 2.588757,6.17192 1.671238,1.83485 3.032205,1.70345 4.86048,-0.46934 z"
         style="fill:#be8ca5;fill-opacity:1;stroke:#be8ca5;stroke-opacity:1" />
    </g>
  </g>
</svg>
